<?xml version="1.0" encoding="UTF-8"?>
<!--Generator: Apple Native CoreSVG 149-->
<!DOCTYPE svg
PUBLIC "-//W3C//DTD SVG 1.1//EN"
       "http://www.w3.org/Graphics/SVG/1.1/DTD/svg11.dtd">
<svg version="1.1" xmlns="http://www.w3.org/2000/svg" xmlns:xlink="http://www.w3.org/1999/xlink" width="3300" height="2200">
 <!--glyph: "uni100B85.medium", point size: 100.000000, font version: "Version 16.0d18e1", template writer version: "8"-->
 <g id="Notes">
  <rect height="2200" id="artboard" style="fill:white;opacity:1" width="3300" x="0" y="0"/>
  <line id="" style="fill:none;stroke:black;opacity:1;stroke-width:0.5;" x1="263" x2="3036" y1="292" y2="292"/>
  <text style="stroke:none;fill:black;font-family:-apple-system,&quot;SF Pro Display&quot;,&quot;SF Pro Text&quot;,Helvetica,sans-serif;font-weight:bold;" transform="matrix(1 0 0 1 263 322)">Weight/Scale Variations</text>
  <text style="stroke:none;fill:black;font-family:-apple-system,&quot;SF Pro Display&quot;,&quot;SF Pro Text&quot;,Helvetica,sans-serif;text-anchor:middle;" transform="matrix(1 0 0 1 559.711 322)">Ultralight</text>
  <text style="stroke:none;fill:black;font-family:-apple-system,&quot;SF Pro Display&quot;,&quot;SF Pro Text&quot;,Helvetica,sans-serif;text-anchor:middle;" transform="matrix(1 0 0 1 856.422 322)">Thin</text>
  <text style="stroke:none;fill:black;font-family:-apple-system,&quot;SF Pro Display&quot;,&quot;SF Pro Text&quot;,Helvetica,sans-serif;text-anchor:middle;" transform="matrix(1 0 0 1 1153.13 322)">Light</text>
  <text style="stroke:none;fill:black;font-family:-apple-system,&quot;SF Pro Display&quot;,&quot;SF Pro Text&quot;,Helvetica,sans-serif;text-anchor:middle;" transform="matrix(1 0 0 1 1449.84 322)">Regular</text>
  <text style="stroke:none;fill:black;font-family:-apple-system,&quot;SF Pro Display&quot;,&quot;SF Pro Text&quot;,Helvetica,sans-serif;text-anchor:middle;" transform="matrix(1 0 0 1 1746.56 322)">Medium</text>
  <text style="stroke:none;fill:black;font-family:-apple-system,&quot;SF Pro Display&quot;,&quot;SF Pro Text&quot;,Helvetica,sans-serif;text-anchor:middle;" transform="matrix(1 0 0 1 2043.27 322)">Semibold</text>
  <text style="stroke:none;fill:black;font-family:-apple-system,&quot;SF Pro Display&quot;,&quot;SF Pro Text&quot;,Helvetica,sans-serif;text-anchor:middle;" transform="matrix(1 0 0 1 2339.98 322)">Bold</text>
  <text style="stroke:none;fill:black;font-family:-apple-system,&quot;SF Pro Display&quot;,&quot;SF Pro Text&quot;,Helvetica,sans-serif;text-anchor:middle;" transform="matrix(1 0 0 1 2636.69 322)">Heavy</text>
  <text style="stroke:none;fill:black;font-family:-apple-system,&quot;SF Pro Display&quot;,&quot;SF Pro Text&quot;,Helvetica,sans-serif;text-anchor:middle;" transform="matrix(1 0 0 1 2933.4 322)">Black</text>
  <line id="" style="fill:none;stroke:black;opacity:1;stroke-width:0.5;" x1="263" x2="3036" y1="1903" y2="1903"/>
  <g id="" transform="matrix(1 0 0 1 263 1933)">
   <path d="M9.24805 0.830078C13.5547 0.830078 17.1387-2.74414 17.1387-7.05078C17.1387-11.3574 13.5449-14.9316 9.23828-14.9316C4.94141-14.9316 1.36719-11.3574 1.36719-7.05078C1.36719-2.74414 4.95117 0.830078 9.24805 0.830078ZM9.24805-0.654297C5.70312-0.654297 2.87109-3.49609 2.87109-7.05078C2.87109-10.6055 5.69336-13.4473 9.23828-13.4473C12.793-13.4473 15.6348-10.6055 15.6445-7.05078C15.6543-3.49609 12.8027-0.654297 9.24805-0.654297ZM6.39648-6.31836L8.50586-6.31836L8.50586-4.19922C8.50586-3.75977 8.79883-3.45703 9.22852-3.45703C9.67773-3.45703 9.9707-3.75977 9.9707-4.19922L9.9707-6.31836L12.0996-6.31836C12.5391-6.31836 12.8418-6.61133 12.8418-7.04102C12.8418-7.48047 12.5391-7.7832 12.0996-7.7832L9.9707-7.7832L9.9707-9.89258C9.9707-10.3418 9.67773-10.6445 9.22852-10.6445C8.79883-10.6445 8.50586-10.3418 8.50586-9.89258L8.50586-7.7832L6.39648-7.7832C5.94727-7.7832 5.64453-7.48047 5.64453-7.04102C5.64453-6.61133 5.94727-6.31836 6.39648-6.31836Z"/>
  </g>
  <g id="" transform="matrix(1 0 0 1 281.506 1933)">
   <path d="M11.709 2.91016C17.1582 2.91016 21.6699-1.61133 21.6699-7.05078C21.6699-12.5 17.1484-17.0117 11.6992-17.0117C6.25977-17.0117 1.74805-12.5 1.74805-7.05078C1.74805-1.61133 6.26953 2.91016 11.709 2.91016ZM11.709 1.25C7.09961 1.25 3.41797-2.44141 3.41797-7.05078C3.41797-11.6602 7.08984-15.3516 11.6992-15.3516C16.3086-15.3516 20-11.6602 20.0098-7.05078C20.0195-2.44141 16.3184 1.25 11.709 1.25ZM7.98828-6.23047L10.8789-6.23047L10.8789-3.32031C10.8789-2.83203 11.2109-2.5 11.6895-2.5C12.1777-2.5 12.5195-2.83203 12.5195-3.32031L12.5195-6.23047L15.4297-6.23047C15.918-6.23047 16.25-6.5625 16.25-7.04102C16.25-7.5293 15.918-7.87109 15.4297-7.87109L12.5195-7.87109L12.5195-10.7617C12.5195-11.2695 12.1777-11.6016 11.6895-11.6016C11.2109-11.6016 10.8789-11.2598 10.8789-10.7617L10.8789-7.87109L7.98828-7.87109C7.48047-7.87109 7.14844-7.5293 7.14844-7.04102C7.14844-6.5625 7.49023-6.23047 7.98828-6.23047Z"/>
  </g>
  <g id="" transform="matrix(1 0 0 1 304.924 1933)">
   <path d="M14.9707 5.66406C21.9336 5.66406 27.6953-0.0976562 27.6953-7.05078C27.6953-14.0137 21.9238-19.7754 14.9609-19.7754C8.00781-19.7754 2.25586-14.0137 2.25586-7.05078C2.25586-0.0976562 8.01758 5.66406 14.9707 5.66406ZM14.9707 3.84766C8.93555 3.84766 4.08203-1.01562 4.08203-7.05078C4.08203-13.0957 8.92578-17.9492 14.9609-17.9492C21.0059-17.9492 25.8594-13.0957 25.8691-7.05078C25.8789-1.01562 21.0156 3.84766 14.9707 3.84766ZM10.0586-6.14258L14.0625-6.14258L14.0625-2.12891C14.0625-1.5918 14.4336-1.2207 14.9512-1.2207C15.4883-1.2207 15.8594-1.5918 15.8594-2.12891L15.8594-6.14258L19.8828-6.14258C20.4102-6.14258 20.791-6.51367 20.791-7.03125C20.791-7.56836 20.4199-7.94922 19.8828-7.94922L15.8594-7.94922L15.8594-11.9531C15.8594-12.5098 15.4883-12.8809 14.9512-12.8809C14.4336-12.8809 14.0625-12.5 14.0625-11.9531L14.0625-7.94922L10.0586-7.94922C9.50195-7.94922 9.13086-7.56836 9.13086-7.03125C9.13086-6.51367 9.51172-6.14258 10.0586-6.14258Z"/>
  </g>
  <text style="stroke:none;fill:black;font-family:-apple-system,&quot;SF Pro Display&quot;,&quot;SF Pro Text&quot;,Helvetica,sans-serif;font-weight:bold;" transform="matrix(1 0 0 1 263 1953)">Design Variations</text>
  <text style="stroke:none;fill:black;font-family:-apple-system,&quot;SF Pro Display&quot;,&quot;SF Pro Text&quot;,Helvetica,sans-serif;" transform="matrix(1 0 0 1 263 1971)">Symbols are supported in up to nine weights and three scales.</text>
  <text style="stroke:none;fill:black;font-family:-apple-system,&quot;SF Pro Display&quot;,&quot;SF Pro Text&quot;,Helvetica,sans-serif;" transform="matrix(1 0 0 1 263 1989)">For optimal layout with text and other symbols, vertically align</text>
  <text style="stroke:none;fill:black;font-family:-apple-system,&quot;SF Pro Display&quot;,&quot;SF Pro Text&quot;,Helvetica,sans-serif;" transform="matrix(1 0 0 1 263 2007)">symbols with the adjacent text.</text>
  <line id="" style="fill:none;stroke:#00AEEF;stroke-width:0.5;opacity:1.0;" x1="776" x2="776" y1="1919" y2="1933"/>
  <g id="" transform="matrix(1 0 0 1 776 1933)">
   <path d="M3.31055 0.126953C3.82812 0.126953 4.08203-0.0683594 4.26758-0.605469L5.52734-4.0625L11.2891-4.0625L12.5488-0.605469C12.7344-0.0683594 12.9883 0.126953 13.4961 0.126953C14.0137 0.126953 14.3457-0.185547 14.3457-0.673828C14.3457-0.839844 14.3164-0.986328 14.2383-1.20117L9.6582-13.3887C9.43359-13.9941 9.0332-14.2871 8.4082-14.2871C7.80273-14.2871 7.39258-13.9941 7.17773-13.3984L2.59766-1.19141C2.51953-0.976562 2.49023-0.830078 2.49023-0.664062C2.49023-0.175781 2.80273 0.126953 3.31055 0.126953ZM6.00586-5.53711L8.37891-12.1094L8.42773-12.1094L10.8008-5.53711Z"/>
  </g>
  <line id="" style="fill:none;stroke:#00AEEF;stroke-width:0.5;opacity:1.0;" x1="792.836" x2="792.836" y1="1919" y2="1933"/>
  <text style="stroke:none;fill:black;font-family:-apple-system,&quot;SF Pro Display&quot;,&quot;SF Pro Text&quot;,Helvetica,sans-serif;font-weight:bold;" transform="matrix(1 0 0 1 776 1953)">Margins</text>
  <text style="stroke:none;fill:black;font-family:-apple-system,&quot;SF Pro Display&quot;,&quot;SF Pro Text&quot;,Helvetica,sans-serif;" transform="matrix(1 0 0 1 776 1971)">Leading and trailing margins on the left and right side of each symbol</text>
  <text style="stroke:none;fill:black;font-family:-apple-system,&quot;SF Pro Display&quot;,&quot;SF Pro Text&quot;,Helvetica,sans-serif;" transform="matrix(1 0 0 1 776 1989)">can be adjusted by modifying the x-location of the margin guidelines.</text>
  <text style="stroke:none;fill:black;font-family:-apple-system,&quot;SF Pro Display&quot;,&quot;SF Pro Text&quot;,Helvetica,sans-serif;" transform="matrix(1 0 0 1 776 2007)">Modifications are automatically applied proportionally to all</text>
  <text style="stroke:none;fill:black;font-family:-apple-system,&quot;SF Pro Display&quot;,&quot;SF Pro Text&quot;,Helvetica,sans-serif;" transform="matrix(1 0 0 1 776 2025)">scales and weights.</text>
  <g id="" transform="matrix(1 0 0 1 1289 1933)">
   <path d="M2.8418 1.86523L4.54102 3.57422C5.40039 4.44336 6.38672 4.38477 7.31445 3.35938L17.4902-7.85156C17.7539-7.76367 18.0273-7.7832 18.3398-7.8418L19.4043-8.03711L20.0684-7.36328L20.0293-6.80664C19.9902-6.30859 20.1172-5.92773 20.6055-5.44922L21.3672-4.70703C21.8457-4.22852 22.4609-4.19922 22.9297-4.66797L25.8398-7.58789C26.3086-8.05664 26.2891-8.65234 25.8105-9.13086L25.0391-9.89258C24.5605-10.3711 24.1895-10.5273 23.7109-10.4883L23.1348-10.4395L22.4902-11.0742L22.7344-12.1973C22.8613-12.7637 22.7051-13.2031 22.1191-13.7891L19.9219-15.9766C16.582-19.2969 12.1484-19.2188 9.25781-16.3281C8.83789-15.918 8.80859-15.3418 9.04297-14.9512C9.27734-14.5898 9.73633-14.3555 10.3809-14.5215C11.8457-14.8633 13.3691-14.9219 14.7949-13.9844L14.209-12.5293C14.0137-12.0508 13.9844-11.6504 14.1113-11.2891L3.04688-0.898438C2.06055 0.0195312 1.98242 0.996094 2.8418 1.86523ZM10.752-15.957C13.1836-17.7344 16.4746-17.4316 18.7012-15.2051L21.1328-12.793C21.3672-12.5586 21.4062-12.373 21.3379-12.0312L21.0156-10.5469L22.5195-9.0625L23.5059-9.12109C23.7598-9.13086 23.8379-9.11133 24.0332-8.91602L24.6094-8.33984L22.168-5.89844L21.5918-6.47461C21.3965-6.66992 21.3672-6.74805 21.377-7.01172L21.4453-7.98828L19.9512-9.47266L18.4277-9.21875C18.1055-9.15039 17.959-9.17969 17.7148-9.41406L15.7129-11.416C15.459-11.6504 15.4297-11.8164 15.5859-12.1875L16.4648-14.2773C14.9023-15.7324 12.8711-16.3574 10.8398-15.7617C10.6836-15.7227 10.625-15.8496 10.752-15.957ZM5.27344 2.30469L4.10156 1.14258C3.63281 0.683594 3.74023 0.341797 4.14062-0.0195312L14.9512-10.1953L16.416-8.71094L6.42578 2.27539C6.07422 2.67578 5.74219 2.77344 5.27344 2.30469Z"/>
  </g>
  <text style="stroke:none;fill:black;font-family:-apple-system,&quot;SF Pro Display&quot;,&quot;SF Pro Text&quot;,Helvetica,sans-serif;font-weight:bold;" transform="matrix(1 0 0 1 1289 1953)">Exporting</text>
  <text style="stroke:none;fill:black;font-family:-apple-system,&quot;SF Pro Display&quot;,&quot;SF Pro Text&quot;,Helvetica,sans-serif;" transform="matrix(1 0 0 1 1289 1971)">Symbols should be outlined when exporting to ensure the</text>
  <text style="stroke:none;fill:black;font-family:-apple-system,&quot;SF Pro Display&quot;,&quot;SF Pro Text&quot;,Helvetica,sans-serif;" transform="matrix(1 0 0 1 1289 1989)">design is preserved when submitting to Xcode.</text>
  <text id="template-version" style="stroke:none;fill:black;font-family:-apple-system,&quot;SF Pro Display&quot;,&quot;SF Pro Text&quot;,Helvetica,sans-serif;text-anchor:end;" transform="matrix(1 0 0 1 3036 1933)">Template v.2.0</text>
  <text style="stroke:none;fill:black;font-family:-apple-system,&quot;SF Pro Display&quot;,&quot;SF Pro Text&quot;,Helvetica,sans-serif;text-anchor:end;" transform="matrix(1 0 0 1 3036 1951)">Requires Xcode 12 or greater</text>
  <text style="stroke:none;fill:black;font-family:-apple-system,&quot;SF Pro Display&quot;,&quot;SF Pro Text&quot;,Helvetica,sans-serif;text-anchor:end;" transform="matrix(1 0 0 1 3036 1969)">Generated from building</text>
  <text style="stroke:none;fill:black;font-family:-apple-system,&quot;SF Pro Display&quot;,&quot;SF Pro Text&quot;,Helvetica,sans-serif;text-anchor:end;" transform="matrix(1 0 0 1 3036 1987)">Typeset at 100 points</text>
  <text style="stroke:none;fill:black;font-family:-apple-system,&quot;SF Pro Display&quot;,&quot;SF Pro Text&quot;,Helvetica,sans-serif;" transform="matrix(1 0 0 1 263 726)">Small</text>
  <text style="stroke:none;fill:black;font-family:-apple-system,&quot;SF Pro Display&quot;,&quot;SF Pro Text&quot;,Helvetica,sans-serif;" transform="matrix(1 0 0 1 263 1156)">Medium</text>
  <text style="stroke:none;fill:black;font-family:-apple-system,&quot;SF Pro Display&quot;,&quot;SF Pro Text&quot;,Helvetica,sans-serif;" transform="matrix(1 0 0 1 263 1586)">Large</text>
 </g>
 <g id="Guides">
  <g id="H-reference" style="fill:#27AAE1;stroke:none;" transform="matrix(1 0 0 1 339 696)">
   <path d="M0.976562 0L3.66211 0L12.9883-24.4629L45.752-24.4629L55.127 0L57.7637 0L30.6152-70.459L28.125-70.459ZM29.3457-67.1387L29.4434-67.1387L44.873-26.709L13.8672-26.709Z"/>
  </g>
  <line id="Baseline-S" style="fill:none;stroke:#27AAE1;opacity:1;stroke-width:0.5;" x1="263" x2="3036" y1="696" y2="696"/>
  <line id="Capline-S" style="fill:none;stroke:#27AAE1;opacity:1;stroke-width:0.5;" x1="263" x2="3036" y1="625.541" y2="625.541"/>
  <g id="H-reference" style="fill:#27AAE1;stroke:none;" transform="matrix(1 0 0 1 339 1126)">
   <path d="M0.976562 0L3.66211 0L12.9883-24.4629L45.752-24.4629L55.127 0L57.7637 0L30.6152-70.459L28.125-70.459ZM29.3457-67.1387L29.4434-67.1387L44.873-26.709L13.8672-26.709Z"/>
  </g>
  <line id="Baseline-M" style="fill:none;stroke:#27AAE1;opacity:1;stroke-width:0.5;" x1="263" x2="3036" y1="1126" y2="1126"/>
  <line id="Capline-M" style="fill:none;stroke:#27AAE1;opacity:1;stroke-width:0.5;" x1="263" x2="3036" y1="1055.54" y2="1055.54"/>
  <g id="H-reference" style="fill:#27AAE1;stroke:none;" transform="matrix(1 0 0 1 339 1556)">
   <path d="M0.976562 0L3.66211 0L12.9883-24.4629L45.752-24.4629L55.127 0L57.7637 0L30.6152-70.459L28.125-70.459ZM29.3457-67.1387L29.4434-67.1387L44.873-26.709L13.8672-26.709Z"/>
  </g>
  <line id="Baseline-L" style="fill:none;stroke:#27AAE1;opacity:1;stroke-width:0.5;" x1="263" x2="3036" y1="1556" y2="1556"/>
  <line id="Capline-L" style="fill:none;stroke:#27AAE1;opacity:1;stroke-width:0.5;" x1="263" x2="3036" y1="1485.54" y2="1485.54"/>
  <line id="left-margin" style="fill:none;stroke:#00AEEF;stroke-width:0.5;opacity:1.0;" x1="1398.53" x2="1398.53" y1="1030.79" y2="1150.12"/>
  <line id="right-margin" style="fill:none;stroke:#00AEEF;stroke-width:0.5;opacity:1.0;" x1="1501.16" x2="1501.16" y1="1030.79" y2="1150.12"/>
 </g>
 <g id="Symbols">
  <g id="Black-L" transform="matrix(1 0 0 1 2859.55 1556)">
   <path d="M16.0645 16.5527C16.0645 28.3691 22.5098 35.2539 33.8379 35.2539L113.916 35.2539C125.195 35.2539 131.641 28.3691 131.641 16.5527L131.641-86.9629C131.641-98.7793 125.195-105.615 113.916-105.615L33.8379-105.615C22.5098-105.615 16.0645-98.7793 16.0645-86.9629ZM35.791 13.5254L35.791-83.8867C35.791-85.1562 36.6211-85.9863 37.8418-85.9863L109.863-85.9863C111.133-85.9863 111.963-85.1562 111.963-83.8867L111.963 13.5254C111.963 14.7461 111.133 15.5762 109.863 15.5762L98.3398 15.5762L98.3398-1.75781C98.3398-6.93359 95.3613-10.1074 90.4785-10.1074L57.3242-10.1074C52.3926-10.1074 49.4629-6.93359 49.4629-1.75781L49.4629 15.5762L37.8418 15.5762C36.6211 15.5762 35.791 14.7461 35.791 13.5254ZM54.1992-60.0098L65.2344-60.0098C66.6504-60.0098 67.5781-60.9375 67.5781-62.4023L67.5781-73.2422C67.5781-74.6582 66.6504-75.6348 65.2344-75.6348L54.1992-75.6348C52.7832-75.6348 51.8555-74.6582 51.8555-73.2422L51.8555-62.4023C51.8555-60.9375 52.7832-60.0098 54.1992-60.0098ZM82.5195-60.0098L93.5547-60.0098C94.9707-60.0098 95.9473-60.9375 95.9473-62.4023L95.9473-73.2422C95.9473-74.6582 94.9707-75.6348 93.5547-75.6348L82.5195-75.6348C81.1035-75.6348 80.1758-74.6582 80.1758-73.2422L80.1758-62.4023C80.1758-60.9375 81.1035-60.0098 82.5195-60.0098ZM54.1992-38.6719L65.2344-38.6719C66.6504-38.6719 67.5781-39.6484 67.5781-41.1133L67.5781-51.9043C67.5781-53.3691 66.6504-54.3457 65.2344-54.3457L54.1992-54.3457C52.7832-54.3457 51.8555-53.3691 51.8555-51.9043L51.8555-41.1133C51.8555-39.6484 52.7832-38.6719 54.1992-38.6719ZM82.5195-38.6719L93.5547-38.6719C94.9707-38.6719 95.9473-39.6484 95.9473-41.1133L95.9473-51.9043C95.9473-53.3691 94.9707-54.3457 93.5547-54.3457L82.5195-54.3457C81.1035-54.3457 80.1758-53.3691 80.1758-51.9043L80.1758-41.1133C80.1758-39.6484 81.1035-38.6719 82.5195-38.6719ZM54.1992-17.3828L65.2344-17.3828C66.6504-17.3828 67.5781-18.3594 67.5781-19.7754L67.5781-30.6152C67.5781-32.0801 66.6504-33.0078 65.2344-33.0078L54.1992-33.0078C52.7832-33.0078 51.8555-32.0801 51.8555-30.6152L51.8555-19.7754C51.8555-18.3594 52.7832-17.3828 54.1992-17.3828ZM82.5195-17.3828L93.5547-17.3828C94.9707-17.3828 95.9473-18.3594 95.9473-19.7754L95.9473-30.6152C95.9473-32.0801 94.9707-33.0078 93.5547-33.0078L82.5195-33.0078C81.1035-33.0078 80.1758-32.0801 80.1758-30.6152L80.1758-19.7754C80.1758-18.3594 81.1035-17.3828 82.5195-17.3828ZM63.7695 4.63867C63.7695 3.66211 64.4043 3.02734 65.3809 3.02734L82.373 3.02734C83.3984 3.02734 84.0332 3.66211 84.0332 4.63867L84.0332 15.5762L63.7695 15.5762Z"/>
  </g>
  <g id="Heavy-L" transform="matrix(1 0 0 1 2564.94 1556)">
   <path d="M16.0645 17.5293C16.0645 28.125 21.875 34.3262 31.9824 34.3262L111.523 34.3262C121.631 34.3262 127.441 28.125 127.441 17.5293L127.441-87.9395C127.441-98.5352 121.631-104.736 111.523-104.736L31.9824-104.736C21.875-104.736 16.0645-98.5352 16.0645-87.9395ZM33.1543 14.7949L33.1543-85.1562C33.1543-86.7676 34.082-87.6953 35.6445-87.6953L107.812-87.6953C109.424-87.6953 110.303-86.7676 110.303-85.1562L110.303 14.7949C110.303 16.3574 109.424 17.2852 107.812 17.2852L95.6055 17.2852L95.6055-0.292969C95.6055-5.46875 92.7734-8.44727 87.8418-8.44727L55.7129-8.44727C50.7324-8.44727 47.9492-5.46875 47.9492-0.292969L47.9492 17.2852L35.6445 17.2852C34.082 17.2852 33.1543 16.3574 33.1543 14.7949ZM51.8066-61.1328L63.2324-61.1328C64.6484-61.1328 65.625-62.0605 65.625-63.5254L65.625-74.707C65.625-76.1719 64.6484-77.1484 63.2324-77.1484L51.8066-77.1484C50.3906-77.1484 49.4629-76.1719 49.4629-74.707L49.4629-63.5254C49.4629-62.0605 50.3906-61.1328 51.8066-61.1328ZM80.2734-61.1328L91.6992-61.1328C93.1152-61.1328 94.0918-62.0605 94.0918-63.5254L94.0918-74.707C94.0918-76.1719 93.1152-77.1484 91.6992-77.1484L80.2734-77.1484C78.8574-77.1484 77.9297-76.1719 77.9297-74.707L77.9297-63.5254C77.9297-62.0605 78.8574-61.1328 80.2734-61.1328ZM51.8066-38.7695L63.2324-38.7695C64.6484-38.7695 65.625-39.7461 65.625-41.2109L65.625-52.3926C65.625-53.8574 64.6484-54.834 63.2324-54.834L51.8066-54.834C50.3906-54.834 49.4629-53.8574 49.4629-52.3926L49.4629-41.2109C49.4629-39.7461 50.3906-38.7695 51.8066-38.7695ZM80.2734-38.7695L91.6992-38.7695C93.1152-38.7695 94.0918-39.7461 94.0918-41.2109L94.0918-52.3926C94.0918-53.8574 93.1152-54.834 91.6992-54.834L80.2734-54.834C78.8574-54.834 77.9297-53.8574 77.9297-52.3926L77.9297-41.2109C77.9297-39.7461 78.8574-38.7695 80.2734-38.7695ZM51.8066-16.4551L63.2324-16.4551C64.6484-16.4551 65.625-17.4316 65.625-18.8965L65.625-30.0781C65.625-31.543 64.6484-32.5195 63.2324-32.5195L51.8066-32.5195C50.3906-32.5195 49.4629-31.543 49.4629-30.0781L49.4629-18.8965C49.4629-17.4316 50.3906-16.4551 51.8066-16.4551ZM80.2734-16.4551L91.6992-16.4551C93.1152-16.4551 94.0918-17.4316 94.0918-18.8965L94.0918-30.0781C94.0918-31.543 93.1152-32.5195 91.6992-32.5195L80.2734-32.5195C78.8574-32.5195 77.9297-31.543 77.9297-30.0781L77.9297-18.8965C77.9297-17.4316 78.8574-16.4551 80.2734-16.4551ZM60.5957 5.07812C60.5957 3.90625 61.2305 3.27148 62.3535 3.27148L81.2012 3.27148C82.3242 3.27148 82.959 3.90625 82.959 5.07812L82.959 17.2852L60.5957 17.2852Z"/>
  </g>
  <g id="Bold-L" transform="matrix(1 0 0 1 2270.59 1556)">
   <path d="M16.0645 18.6523C16.0645 27.8809 21.1426 33.3496 29.8828 33.3496L108.838 33.3496C117.627 33.3496 122.705 27.8809 122.705 18.6523L122.705-89.0137C122.705-98.291 117.627-103.711 108.838-103.711L29.8828-103.711C21.1426-103.711 16.0645-98.291 16.0645-89.0137ZM30.2246 16.2109L30.2246-86.5723C30.2246-88.5742 31.25-89.5508 33.2031-89.5508L105.518-89.5508C107.52-89.5508 108.496-88.5742 108.496-86.5723L108.496 16.2109C108.496 18.1641 107.52 19.1895 105.518 19.1895L92.5293 19.1895L92.5293 1.36719C92.5293-3.80859 89.8926-6.5918 84.9121-6.5918L53.9062-6.5918C48.9258-6.5918 46.2891-3.80859 46.2891 1.36719L46.2891 19.1895L33.2031 19.1895C31.25 19.1895 30.2246 18.1641 30.2246 16.2109ZM49.1211-62.3535L61.0352-62.3535C62.4512-62.3535 63.3789-63.3301 63.3789-64.7949L63.3789-76.416C63.3789-77.8809 62.4512-78.8086 61.0352-78.8086L49.1211-78.8086C47.7051-78.8086 46.7773-77.8809 46.7773-76.416L46.7773-64.7949C46.7773-63.3301 47.7051-62.3535 49.1211-62.3535ZM77.7344-62.3535L89.6484-62.3535C91.0645-62.3535 91.9922-63.3301 91.9922-64.7949L91.9922-76.416C91.9922-77.8809 91.0645-78.8086 89.6484-78.8086L77.7344-78.8086C76.3184-78.8086 75.3906-77.8809 75.3906-76.416L75.3906-64.7949C75.3906-63.3301 76.3184-62.3535 77.7344-62.3535ZM49.1211-38.916L61.0352-38.916C62.4512-38.916 63.3789-39.8926 63.3789-41.3086L63.3789-52.9785C63.3789-54.3945 62.4512-55.3711 61.0352-55.3711L49.1211-55.3711C47.7051-55.3711 46.7773-54.3945 46.7773-52.9785L46.7773-41.3086C46.7773-39.8926 47.7051-38.916 49.1211-38.916ZM77.7344-38.916L89.6484-38.916C91.0645-38.916 91.9922-39.8926 91.9922-41.3086L91.9922-52.9785C91.9922-54.3945 91.0645-55.3711 89.6484-55.3711L77.7344-55.3711C76.3184-55.3711 75.3906-54.3945 75.3906-52.9785L75.3906-41.3086C75.3906-39.8926 76.3184-38.916 77.7344-38.916ZM49.1211-15.4297L61.0352-15.4297C62.4512-15.4297 63.3789-16.4062 63.3789-17.8711L63.3789-29.4922C63.3789-30.957 62.4512-31.8848 61.0352-31.8848L49.1211-31.8848C47.7051-31.8848 46.7773-30.957 46.7773-29.4922L46.7773-17.8711C46.7773-16.4062 47.7051-15.4297 49.1211-15.4297ZM77.7344-15.4297L89.6484-15.4297C91.0645-15.4297 91.9922-16.4062 91.9922-17.8711L91.9922-29.4922C91.9922-30.957 91.0645-31.8848 89.6484-31.8848L77.7344-31.8848C76.3184-31.8848 75.3906-30.957 75.3906-29.4922L75.3906-17.8711C75.3906-16.4062 76.3184-15.4297 77.7344-15.4297ZM57.0312 5.51758C57.0312 4.24805 57.7148 3.56445 58.9844 3.56445L79.834 3.56445C81.1035 3.56445 81.7871 4.24805 81.7871 5.51758L81.7871 19.1895L57.0312 19.1895Z"/>
  </g>
  <g id="Semibold-L" transform="matrix(1 0 0 1 1975.52 1556)">
   <path d="M16.0645 19.4336C16.0645 27.7344 20.6543 32.666 28.4668 32.666L107.031 32.666C114.844 32.666 119.434 27.7344 119.434 19.4336L119.434-89.7949C119.434-98.0957 114.844-103.027 107.031-103.027L28.4668-103.027C20.6543-103.027 16.0645-98.0957 16.0645-89.7949ZM28.2227 17.1875L28.2227-87.5977C28.2227-89.7949 29.2969-90.8691 31.543-90.8691L103.955-90.8691C106.201-90.8691 107.275-89.7949 107.275-87.5977L107.275 17.1875C107.275 19.4336 106.201 20.5078 103.955 20.5078L90.3809 20.5078L90.3809 2.53906C90.3809-2.68555 87.8906-5.32227 82.9102-5.32227L52.6367-5.32227C47.6562-5.32227 45.1172-2.68555 45.1172 2.53906L45.1172 20.5078L31.543 20.5078C29.2969 20.5078 28.2227 19.4336 28.2227 17.1875ZM47.2656-63.2324L59.5215-63.2324C60.9375-63.2324 61.8652-64.209 61.8652-65.6738L61.8652-77.5879C61.8652-79.0527 60.9375-79.9805 59.5215-79.9805L47.2656-79.9805C45.8496-79.9805 44.9707-79.0527 44.9707-77.5879L44.9707-65.6738C44.9707-64.209 45.8496-63.2324 47.2656-63.2324ZM75.9766-63.2324L88.1836-63.2324C89.5996-63.2324 90.5762-64.209 90.5762-65.6738L90.5762-77.5879C90.5762-79.0527 89.5996-79.9805 88.1836-79.9805L75.9766-79.9805C74.5605-79.9805 73.6328-79.0527 73.6328-77.5879L73.6328-65.6738C73.6328-64.209 74.5605-63.2324 75.9766-63.2324ZM47.2656-39.0137L59.5215-39.0137C60.9375-39.0137 61.8652-39.9414 61.8652-41.4062L61.8652-53.3203C61.8652-54.7852 60.9375-55.7617 59.5215-55.7617L47.2656-55.7617C45.8496-55.7617 44.9707-54.7852 44.9707-53.3203L44.9707-41.4062C44.9707-39.9414 45.8496-39.0137 47.2656-39.0137ZM75.9766-39.0137L88.1836-39.0137C89.5996-39.0137 90.5762-39.9414 90.5762-41.4062L90.5762-53.3203C90.5762-54.7852 89.5996-55.7617 88.1836-55.7617L75.9766-55.7617C74.5605-55.7617 73.6328-54.7852 73.6328-53.3203L73.6328-41.4062C73.6328-39.9414 74.5605-39.0137 75.9766-39.0137ZM47.2656-14.7461L59.5215-14.7461C60.9375-14.7461 61.8652-15.7227 61.8652-17.1387L61.8652-29.1016C61.8652-30.5176 60.9375-31.4941 59.5215-31.4941L47.2656-31.4941C45.8496-31.4941 44.9707-30.5176 44.9707-29.1016L44.9707-17.1387C44.9707-15.7227 45.8496-14.7461 47.2656-14.7461ZM75.9766-14.7461L88.1836-14.7461C89.5996-14.7461 90.5762-15.7227 90.5762-17.1387L90.5762-29.1016C90.5762-30.5176 89.5996-31.4941 88.1836-31.4941L75.9766-31.4941C74.5605-31.4941 73.6328-30.5176 73.6328-29.1016L73.6328-17.1387C73.6328-15.7227 74.5605-14.7461 75.9766-14.7461ZM54.5898 5.81055C54.5898 4.44336 55.2734 3.75977 56.6406 3.75977L78.9062 3.75977C80.2734 3.75977 80.957 4.44336 80.957 5.81055L80.957 20.5078L54.5898 20.5078Z"/>
  </g>
  <g id="Medium-L" transform="matrix(1 0 0 1 1680.05 1556)">
   <path d="M16.0645 19.9707C16.0645 27.5879 20.2637 32.1289 27.3926 32.1289L105.615 32.1289C112.744 32.1289 116.943 27.5879 116.943 19.9707L116.943-90.3809C116.943-97.9492 112.744-102.49 105.615-102.49L27.3926-102.49C20.2637-102.49 16.0645-97.9492 16.0645-90.3809ZM26.709 17.9688L26.709-88.3301C26.709-90.7715 27.832-91.8945 30.2734-91.8945L102.734-91.8945C105.176-91.8945 106.299-90.7715 106.299-88.3301L106.299 17.9688C106.299 20.3613 105.176 21.4844 102.734 21.4844L88.8184 21.4844L88.8184 3.41797C88.8184-1.80664 86.377-4.3457 81.3965-4.3457L51.6602-4.3457C46.6797-4.3457 44.2383-1.80664 44.2383 3.41797L44.2383 21.4844L30.2734 21.4844C27.832 21.4844 26.709 20.3613 26.709 17.9688ZM45.8984-63.916L58.3496-63.916C59.7656-63.916 60.6934-64.8438 60.6934-66.3086L60.6934-78.4668C60.6934-79.9316 59.7656-80.8594 58.3496-80.8594L45.8984-80.8594C44.4336-80.8594 43.5547-79.9316 43.5547-78.4668L43.5547-66.3086C43.5547-64.8438 44.4336-63.916 45.8984-63.916ZM74.6582-63.916L87.1094-63.916C88.5254-63.916 89.4531-64.8438 89.4531-66.3086L89.4531-78.4668C89.4531-79.9316 88.5254-80.8594 87.1094-80.8594L74.6582-80.8594C73.1934-80.8594 72.3145-79.9316 72.3145-78.4668L72.3145-66.3086C72.3145-64.8438 73.1934-63.916 74.6582-63.916ZM45.8984-39.0625L58.3496-39.0625C59.7656-39.0625 60.6934-40.0391 60.6934-41.4551L60.6934-53.6133C60.6934-55.0781 59.7656-56.0547 58.3496-56.0547L45.8984-56.0547C44.4336-56.0547 43.5547-55.0781 43.5547-53.6133L43.5547-41.4551C43.5547-40.0391 44.4336-39.0625 45.8984-39.0625ZM74.6582-39.0625L87.1094-39.0625C88.5254-39.0625 89.4531-40.0391 89.4531-41.4551L89.4531-53.6133C89.4531-55.0781 88.5254-56.0547 87.1094-56.0547L74.6582-56.0547C73.1934-56.0547 72.3145-55.0781 72.3145-53.6133L72.3145-41.4551C72.3145-40.0391 73.1934-39.0625 74.6582-39.0625ZM45.8984-14.209L58.3496-14.209C59.7656-14.209 60.6934-15.1855 60.6934-16.6016L60.6934-28.7598C60.6934-30.2246 59.7656-31.2012 58.3496-31.2012L45.8984-31.2012C44.4336-31.2012 43.5547-30.2246 43.5547-28.7598L43.5547-16.6016C43.5547-15.1855 44.4336-14.209 45.8984-14.209ZM74.6582-14.209L87.1094-14.209C88.5254-14.209 89.4531-15.1855 89.4531-16.6016L89.4531-28.7598C89.4531-30.2246 88.5254-31.2012 87.1094-31.2012L74.6582-31.2012C73.1934-31.2012 72.3145-30.2246 72.3145-28.7598L72.3145-16.6016C72.3145-15.1855 73.1934-14.209 74.6582-14.209ZM52.7344 6.05469C52.7344 4.63867 53.418 3.90625 54.8828 3.90625L78.1738 3.90625C79.5898 3.90625 80.3223 4.63867 80.3223 6.05469L80.3223 21.4844L52.7344 21.4844Z"/>
  </g>
  <g id="Regular-L" transform="matrix(1 0 0 1 1384.95 1556)">
   <path d="M16.0645 20.752C16.0645 27.3926 19.7754 31.4453 25.9766 31.4453L103.809 31.4453C110.01 31.4453 113.721 27.3926 113.721 20.752L113.721-91.1133C113.721-97.7539 110.01-101.807 103.809-101.807L25.9766-101.807C19.7754-101.807 16.0645-97.7539 16.0645-91.1133ZM24.707 18.8965L24.707-89.3066C24.707-91.9922 25.9277-93.1641 28.6133-93.1641L101.172-93.1641C103.906-93.1641 105.078-91.9922 105.078-89.3066L105.078 18.8965C105.078 21.6309 103.906 22.8027 101.172 22.8027L86.7188 22.8027L86.7188 4.54102C86.7188-0.683594 84.375-3.07617 79.3945-3.07617L50.4395-3.07617C45.4102-3.07617 43.1152-0.683594 43.1152 4.54102L43.1152 22.8027L28.6133 22.8027C25.9277 22.8027 24.707 21.6309 24.707 18.8965ZM44.043-64.7461L56.8359-64.7461C58.252-64.7461 59.1797-65.7227 59.1797-67.1875L59.1797-79.6387C59.1797-81.0547 58.252-82.0312 56.8359-82.0312L44.043-82.0312C42.627-82.0312 41.748-81.0547 41.748-79.6387L41.748-67.1875C41.748-65.7227 42.627-64.7461 44.043-64.7461ZM72.9004-64.7461L85.6934-64.7461C87.1094-64.7461 88.0371-65.7227 88.0371-67.1875L88.0371-79.6387C88.0371-81.0547 87.1094-82.0312 85.6934-82.0312L72.9004-82.0312C71.4844-82.0312 70.6055-81.0547 70.6055-79.6387L70.6055-67.1875C70.6055-65.7227 71.4844-64.7461 72.9004-64.7461ZM44.043-39.1113L56.8359-39.1113C58.252-39.1113 59.1797-40.0879 59.1797-41.5527L59.1797-54.0039C59.1797-55.4199 58.252-56.3965 56.8359-56.3965L44.043-56.3965C42.627-56.3965 41.748-55.4199 41.748-54.0039L41.748-41.5527C41.748-40.0879 42.627-39.1113 44.043-39.1113ZM72.9004-39.1113L85.6934-39.1113C87.1094-39.1113 88.0371-40.0879 88.0371-41.5527L88.0371-54.0039C88.0371-55.4199 87.1094-56.3965 85.6934-56.3965L72.9004-56.3965C71.4844-56.3965 70.6055-55.4199 70.6055-54.0039L70.6055-41.5527C70.6055-40.0879 71.4844-39.1113 72.9004-39.1113ZM44.043-13.5254L56.8359-13.5254C58.252-13.5254 59.1797-14.4531 59.1797-15.918L59.1797-28.3691C59.1797-29.7852 58.252-30.7617 56.8359-30.7617L44.043-30.7617C42.627-30.7617 41.748-29.7852 41.748-28.3691L41.748-15.918C41.748-14.4531 42.627-13.5254 44.043-13.5254ZM72.9004-13.5254L85.6934-13.5254C87.1094-13.5254 88.0371-14.4531 88.0371-15.918L88.0371-28.3691C88.0371-29.7852 87.1094-30.7617 85.6934-30.7617L72.9004-30.7617C71.4844-30.7617 70.6055-29.7852 70.6055-28.3691L70.6055-15.918C70.6055-14.4531 71.4844-13.5254 72.9004-13.5254ZM50.293 6.34766C50.293 4.83398 51.0254 4.10156 52.5879 4.10156L77.2461 4.10156C78.7598 4.10156 79.541 4.83398 79.541 6.34766L79.541 22.8027L50.293 22.8027Z"/>
  </g>
  <g id="Light-L" transform="matrix(1 0 0 1 1090.05 1556)">
   <path d="M16.0645 21.0449C16.0645 27.2949 19.3359 30.7617 25.293 30.7617L100.879 30.7617C106.836 30.7617 110.107 27.2949 110.107 21.0449L110.107-91.3574C110.107-97.5586 106.836-101.074 100.879-101.074L25.293-101.074C19.3359-101.074 16.0645-97.5586 16.0645-91.3574ZM22.7051 19.9219L22.7051-90.2344C22.7051-93.2617 23.9258-94.4824 26.9043-94.4824L99.2676-94.4824C102.246-94.4824 103.467-93.2617 103.467-90.2344L103.467 19.9219C103.467 22.9492 102.246 24.1699 99.2676 24.1699L84.7168 24.1699L84.7168 6.29883C84.7168 1.41602 82.5195-0.878906 77.7344-0.878906L48.4863-0.878906C43.7012-0.878906 41.5039 1.41602 41.5039 6.29883L41.5039 24.1699L26.9043 24.1699C23.9258 24.1699 22.7051 22.9492 22.7051 19.9219ZM42.334-64.8926L55.8105-64.8926C57.0801-64.8926 57.9102-65.7715 57.9102-67.041L57.9102-80.2734C57.9102-81.543 57.0801-82.4219 55.8105-82.4219L42.334-82.4219C41.0645-82.4219 40.2344-81.543 40.2344-80.2734L40.2344-67.041C40.2344-65.7715 41.0645-64.8926 42.334-64.8926ZM70.3125-64.8926L83.7891-64.8926C85.1074-64.8926 85.9375-65.7715 85.9375-67.041L85.9375-80.2734C85.9375-81.543 85.1074-82.4219 83.7891-82.4219L70.3125-82.4219C69.043-82.4219 68.2617-81.543 68.2617-80.2734L68.2617-67.041C68.2617-65.7715 69.043-64.8926 70.3125-64.8926ZM42.334-38.3301L55.8105-38.3301C57.0801-38.3301 57.9102-39.209 57.9102-40.4785L57.9102-53.7109C57.9102-54.9805 57.0801-55.8594 55.8105-55.8594L42.334-55.8594C41.0645-55.8594 40.2344-54.9805 40.2344-53.7109L40.2344-40.4785C40.2344-39.209 41.0645-38.3301 42.334-38.3301ZM70.3125-38.3301L83.7891-38.3301C85.1074-38.3301 85.9375-39.209 85.9375-40.4785L85.9375-53.7109C85.9375-54.9805 85.1074-55.8594 83.7891-55.8594L70.3125-55.8594C69.043-55.8594 68.2617-54.9805 68.2617-53.7109L68.2617-40.4785C68.2617-39.209 69.043-38.3301 70.3125-38.3301ZM42.334-11.7676L55.8105-11.7676C57.0801-11.7676 57.9102-12.6465 57.9102-13.916L57.9102-27.1484C57.9102-28.418 57.0801-29.2969 55.8105-29.2969L42.334-29.2969C41.0645-29.2969 40.2344-28.418 40.2344-27.1484L40.2344-13.916C40.2344-12.6465 41.0645-11.7676 42.334-11.7676ZM70.3125-11.7676L83.7891-11.7676C85.1074-11.7676 85.9375-12.6465 85.9375-13.916L85.9375-27.1484C85.9375-28.418 85.1074-29.2969 83.7891-29.2969L70.3125-29.2969C69.043-29.2969 68.2617-28.418 68.2617-27.1484L68.2617-13.916C68.2617-12.6465 69.043-11.7676 70.3125-11.7676ZM47.2168 7.4707C47.2168 5.71289 48.0469 4.83398 49.8535 4.83398L76.3672 4.83398C78.1738 4.83398 79.0039 5.71289 79.0039 7.4707L79.0039 24.1699L47.2168 24.1699Z"/>
  </g>
  <g id="Thin-L" transform="matrix(1 0 0 1 795.729 1556)">
   <path d="M16.0645 21.4844C16.0645 27.0996 18.7988 29.8828 24.3652 29.8828L97.0215 29.8828C102.588 29.8828 105.322 27.0996 105.322 21.4844L105.322-91.6992C105.322-97.3145 102.588-100.098 97.0215-100.098L24.3652-100.098C18.7988-100.098 16.0645-97.3145 16.0645-91.6992ZM19.9707 21.2402L19.9707-91.4551C19.9707-94.9219 21.2891-96.1914 24.707-96.1914L96.6797-96.1914C100.098-96.1914 101.367-94.9219 101.367-91.4551L101.367 21.2402C101.367 24.6582 100.098 25.9277 96.6797 25.9277L82.0801 25.9277L82.0801 8.64258C82.0801 4.15039 80.0293 2.05078 75.5371 2.05078L45.9473 2.05078C41.4551 2.05078 39.4043 4.15039 39.4043 8.64258L39.4043 25.9277L24.707 25.9277C21.2891 25.9277 19.9707 24.6582 19.9707 21.2402ZM40.0879-65.0391L54.4434-65.0391C55.5664-65.0391 56.25-65.8203 56.25-66.8945L56.25-81.1035C56.25-82.2266 55.5664-82.959 54.4434-82.959L40.0879-82.959C38.9648-82.959 38.2812-82.2266 38.2812-81.1035L38.2812-66.8945C38.2812-65.8203 38.9648-65.0391 40.0879-65.0391ZM66.8945-65.0391L81.2988-65.0391C82.4219-65.0391 83.1055-65.8203 83.1055-66.8945L83.1055-81.1035C83.1055-82.2266 82.4219-82.959 81.2988-82.959L66.8945-82.959C65.8203-82.959 65.1367-82.2266 65.1367-81.1035L65.1367-66.8945C65.1367-65.8203 65.8203-65.0391 66.8945-65.0391ZM40.0879-37.2559L54.4434-37.2559C55.5664-37.2559 56.25-37.9883 56.25-39.1113L56.25-53.3203C56.25-54.3945 55.5664-55.1758 54.4434-55.1758L40.0879-55.1758C38.9648-55.1758 38.2812-54.3945 38.2812-53.3203L38.2812-39.1113C38.2812-37.9883 38.9648-37.2559 40.0879-37.2559ZM66.8945-37.2559L81.2988-37.2559C82.4219-37.2559 83.1055-37.9883 83.1055-39.1113L83.1055-53.3203C83.1055-54.3945 82.4219-55.1758 81.2988-55.1758L66.8945-55.1758C65.8203-55.1758 65.1367-54.3945 65.1367-53.3203L65.1367-39.1113C65.1367-37.9883 65.8203-37.2559 66.8945-37.2559ZM40.0879-9.42383L54.4434-9.42383C55.5664-9.42383 56.25-10.2051 56.25-11.2793L56.25-25.4883C56.25-26.6113 55.5664-27.3438 54.4434-27.3438L40.0879-27.3438C38.9648-27.3438 38.2812-26.6113 38.2812-25.4883L38.2812-11.2793C38.2812-10.2051 38.9648-9.42383 40.0879-9.42383ZM66.8945-9.42383L81.2988-9.42383C82.4219-9.42383 83.1055-10.2051 83.1055-11.2793L83.1055-25.4883C83.1055-26.6113 82.4219-27.3438 81.2988-27.3438L66.8945-27.3438C65.8203-27.3438 65.1367-26.6113 65.1367-25.4883L65.1367-11.2793C65.1367-10.2051 65.8203-9.42383 66.8945-9.42383ZM43.1152 8.88672C43.1152 6.83594 44.1406 5.81055 46.1914 5.81055L75.2441 5.81055C77.3438 5.81055 78.3203 6.83594 78.3203 8.88672L78.3203 25.9277L43.1152 25.9277Z"/>
  </g>
  <g id="Ultralight-L" transform="matrix(1 0 0 1 500.238 1556)">
   <path d="M16.0645 21.6797C16.0645 27.002 18.5059 29.3945 23.877 29.3945L95.0684 29.3945C100.439 29.3945 102.881 27.002 102.881 21.6797L102.881-91.8945C102.881-97.2168 100.439-99.6094 95.0684-99.6094L23.877-99.6094C18.5059-99.6094 16.0645-97.2168 16.0645-91.8945ZM18.6035 21.9238L18.6035-92.0898C18.6035-95.752 19.9219-97.0703 23.5352-97.0703L95.3613-97.0703C99.0234-97.0703 100.293-95.752 100.293-92.0898L100.293 21.9238C100.293 25.5371 99.0234 26.8555 95.3613 26.8555L80.7129 26.8555L80.7129 9.86328C80.7129 5.51758 78.7598 3.56445 74.3652 3.56445L44.6289 3.56445C40.2832 3.56445 38.2812 5.51758 38.2812 9.86328L38.2812 26.8555L23.5352 26.8555C19.9219 26.8555 18.6035 25.5371 18.6035 21.9238ZM38.916-65.1367L53.7598-65.1367C54.7852-65.1367 55.3711-65.8203 55.3711-66.8457L55.3711-81.543C55.3711-82.5684 54.7852-83.252 53.7598-83.252L38.916-83.252C37.8906-83.252 37.3047-82.5684 37.3047-81.543L37.3047-66.8457C37.3047-65.8203 37.8906-65.1367 38.916-65.1367ZM65.1367-65.1367L80.0293-65.1367C81.0059-65.1367 81.6406-65.8203 81.6406-66.8457L81.6406-81.543C81.6406-82.5684 81.0059-83.252 80.0293-83.252L65.1367-83.252C64.1602-83.252 63.5254-82.5684 63.5254-81.543L63.5254-66.8457C63.5254-65.8203 64.1602-65.1367 65.1367-65.1367ZM38.916-36.6699L53.7598-36.6699C54.7852-36.6699 55.3711-37.4023 55.3711-38.3789L55.3711-53.125C55.3711-54.1016 54.7852-54.7852 53.7598-54.7852L38.916-54.7852C37.8906-54.7852 37.3047-54.1016 37.3047-53.125L37.3047-38.3789C37.3047-37.4023 37.8906-36.6699 38.916-36.6699ZM65.1367-36.6699L80.0293-36.6699C81.0059-36.6699 81.6406-37.4023 81.6406-38.3789L81.6406-53.125C81.6406-54.1016 81.0059-54.7852 80.0293-54.7852L65.1367-54.7852C64.1602-54.7852 63.5254-54.1016 63.5254-53.125L63.5254-38.3789C63.5254-37.4023 64.1602-36.6699 65.1367-36.6699ZM38.916-8.25195L53.7598-8.25195C54.7852-8.25195 55.3711-8.93555 55.3711-9.91211L55.3711-24.6582C55.3711-25.6348 54.7852-26.3184 53.7598-26.3184L38.916-26.3184C37.8906-26.3184 37.3047-25.6348 37.3047-24.6582L37.3047-9.91211C37.3047-8.93555 37.8906-8.25195 38.916-8.25195ZM65.1367-8.25195L80.0293-8.25195C81.0059-8.25195 81.6406-8.93555 81.6406-9.91211L81.6406-24.6582C81.6406-25.6348 81.0059-26.3184 80.0293-26.3184L65.1367-26.3184C64.1602-26.3184 63.5254-25.6348 63.5254-24.6582L63.5254-9.91211C63.5254-8.93555 64.1602-8.25195 65.1367-8.25195ZM41.0156 9.61914C41.0156 7.37305 42.0898 6.29883 44.3848 6.29883L74.6582 6.29883C76.9043 6.29883 77.9785 7.37305 77.9785 9.61914L77.9785 26.8555L41.0156 26.8555Z"/>
  </g>
  <g id="Black-M" transform="matrix(1 0 0 1 2874.27 1126)">
   <path d="M12.4512 3.71094C12.4512 14.3066 18.1152 20.2148 28.3203 20.2148L89.9414 20.2148C100.146 20.2148 105.811 14.3066 105.811 3.71094L105.811-74.1211C105.811-84.7168 100.146-90.625 89.9414-90.625L28.3203-90.625C18.1152-90.625 12.4512-84.7168 12.4512-74.1211ZM30.1758 1.36719L30.1758-71.7285C30.1758-72.4121 30.7129-72.9492 31.3965-72.9492L86.8652-72.9492C87.5488-72.9492 88.0859-72.4121 88.0859-71.7285L88.0859 1.36719C88.0859 2.00195 87.5488 2.58789 86.8652 2.58789L78.8574 2.58789L78.8574-10.3516C78.8574-14.209 76.416-16.8457 72.7539-16.8457L45.5566-16.8457C41.8945-16.8457 39.4531-14.209 39.4531-10.3516L39.4531 2.58789L31.3965 2.58789C30.7129 2.58789 30.1758 2.00195 30.1758 1.36719ZM44.2871-52.9785L52.6855-52.9785C53.7109-52.9785 54.3945-53.6621 54.3945-54.6875L54.3945-62.9883C54.3945-64.0137 53.7109-64.6973 52.6855-64.6973L44.2871-64.6973C43.3105-64.6973 42.627-64.0137 42.627-62.9883L42.627-54.6875C42.627-53.6621 43.3105-52.9785 44.2871-52.9785ZM65.625-52.9785L74.0234-52.9785C75-52.9785 75.6836-53.6621 75.6836-54.6875L75.6836-62.9883C75.6836-64.0137 75-64.6973 74.0234-64.6973L65.625-64.6973C64.6484-64.6973 63.9648-64.0137 63.9648-62.9883L63.9648-54.6875C63.9648-53.6621 64.6484-52.9785 65.625-52.9785ZM44.2871-37.3535L52.6855-37.3535C53.7109-37.3535 54.3945-38.0371 54.3945-39.0625L54.3945-47.3633C54.3945-48.3887 53.7109-49.0723 52.6855-49.0723L44.2871-49.0723C43.3105-49.0723 42.627-48.3887 42.627-47.3633L42.627-39.0625C42.627-38.0371 43.3105-37.3535 44.2871-37.3535ZM65.625-37.3535L74.0234-37.3535C75-37.3535 75.6836-38.0371 75.6836-39.0625L75.6836-47.3633C75.6836-48.3887 75-49.0723 74.0234-49.0723L65.625-49.0723C64.6484-49.0723 63.9648-48.3887 63.9648-47.3633L63.9648-39.0625C63.9648-38.0371 64.6484-37.3535 65.625-37.3535ZM44.2871-21.6797L52.6855-21.6797C53.7109-21.6797 54.3945-22.3633 54.3945-23.4375L54.3945-31.6895C54.3945-32.7637 53.7109-33.4473 52.6855-33.4473L44.2871-33.4473C43.3105-33.4473 42.627-32.7637 42.627-31.6895L42.627-23.4375C42.627-22.3633 43.3105-21.6797 44.2871-21.6797ZM65.625-21.6797L74.0234-21.6797C75-21.6797 75.6836-22.3633 75.6836-23.4375L75.6836-31.6895C75.6836-32.7637 75-33.4473 74.0234-33.4473L65.625-33.4473C64.6484-33.4473 63.9648-32.7637 63.9648-31.6895L63.9648-23.4375C63.9648-22.3633 64.6484-21.6797 65.625-21.6797ZM52.0508-4.29688C52.0508-5.0293 52.5391-5.51758 53.3203-5.51758L65.0391-5.51758C65.7715-5.51758 66.2598-5.0293 66.2598-4.29688L66.2598 2.58789L52.0508 2.58789Z"/>
  </g>
  <g id="Heavy-M" transform="matrix(1 0 0 1 2579.39 1126)">
   <path d="M12.4512 4.73633C12.4512 14.1113 17.5293 19.4336 26.5137 19.4336L88.0859 19.4336C97.0703 19.4336 102.148 14.1113 102.148 4.73633L102.148-75.1465C102.148-84.4727 97.0703-89.7949 88.0859-89.7949L26.5137-89.7949C17.5293-89.7949 12.4512-84.4727 12.4512-75.1465ZM27.832 2.49023L27.832-72.9004C27.832-73.8281 28.4668-74.4629 29.4434-74.4629L85.1562-74.4629C86.084-74.4629 86.7188-73.8281 86.7188-72.9004L86.7188 2.49023C86.7188 3.4668 86.084 4.10156 85.1562 4.10156L76.3672 4.10156L76.3672-9.17969C76.3672-13.1348 74.0723-15.5762 70.3125-15.5762L44.2871-15.5762C40.5762-15.5762 38.2812-13.1348 38.2812-9.17969L38.2812 4.10156L29.4434 4.10156C28.4668 4.10156 27.832 3.4668 27.832 2.49023ZM42.1387-54.1504L50.7812-54.1504C51.8555-54.1504 52.5391-54.8828 52.5391-55.957L52.5391-64.4531C52.5391-65.5762 51.8555-66.2598 50.7812-66.2598L42.1387-66.2598C41.1133-66.2598 40.3809-65.5762 40.3809-64.4531L40.3809-55.957C40.3809-54.8828 41.1133-54.1504 42.1387-54.1504ZM63.8184-54.1504L72.4609-54.1504C73.5352-54.1504 74.2188-54.8828 74.2188-55.957L74.2188-64.4531C74.2188-65.5762 73.5352-66.2598 72.4609-66.2598L63.8184-66.2598C62.793-66.2598 62.1094-65.5762 62.1094-64.4531L62.1094-55.957C62.1094-54.8828 62.793-54.1504 63.8184-54.1504ZM42.1387-37.6465L50.7812-37.6465C51.8555-37.6465 52.5391-38.3789 52.5391-39.4531L52.5391-47.9492C52.5391-49.0234 51.8555-49.7559 50.7812-49.7559L42.1387-49.7559C41.1133-49.7559 40.3809-49.0234 40.3809-47.9492L40.3809-39.4531C40.3809-38.3789 41.1133-37.6465 42.1387-37.6465ZM63.8184-37.6465L72.4609-37.6465C73.5352-37.6465 74.2188-38.3789 74.2188-39.4531L74.2188-47.9492C74.2188-49.0234 73.5352-49.7559 72.4609-49.7559L63.8184-49.7559C62.793-49.7559 62.1094-49.0234 62.1094-47.9492L62.1094-39.4531C62.1094-38.3789 62.793-37.6465 63.8184-37.6465ZM42.1387-21.1426L50.7812-21.1426C51.8555-21.1426 52.5391-21.875 52.5391-22.9492L52.5391-31.4453C52.5391-32.5195 51.8555-33.252 50.7812-33.252L42.1387-33.252C41.1133-33.252 40.3809-32.5195 40.3809-31.4453L40.3809-22.9492C40.3809-21.875 41.1133-21.1426 42.1387-21.1426ZM63.8184-21.1426L72.4609-21.1426C73.5352-21.1426 74.2188-21.875 74.2188-22.9492L74.2188-31.4453C74.2188-32.5195 73.5352-33.252 72.4609-33.252L63.8184-33.252C62.793-33.252 62.1094-32.5195 62.1094-31.4453L62.1094-22.9492C62.1094-21.875 62.793-21.1426 63.8184-21.1426ZM49.3652-4.10156C49.3652-4.93164 49.9023-5.46875 50.6836-5.46875L63.916-5.46875C64.7461-5.46875 65.2344-4.93164 65.2344-4.10156L65.2344 4.10156L49.3652 4.10156Z"/>
  </g>
  <g id="Bold-M" transform="matrix(1 0 0 1 2284.75 1126)">
   <path d="M12.4512 5.85938C12.4512 13.8672 16.8457 18.5059 24.4141 18.5059L86.0352 18.5059C93.6035 18.5059 97.998 13.8672 97.998 5.85938L97.998-76.2695C97.998-84.2285 93.6035-88.916 86.0352-88.916L24.4141-88.916C16.8457-88.916 12.4512-84.2285 12.4512-76.2695ZM25.2441 3.75977L25.2441-74.1699C25.2441-75.4395 25.9766-76.1719 27.2461-76.1719L83.2031-76.1719C84.4727-76.1719 85.2051-75.4395 85.2051-74.1699L85.2051 3.75977C85.2051 5.0293 84.4727 5.76172 83.2031 5.76172L73.584 5.76172L73.584-7.91016C73.584-11.9141 71.4355-14.209 67.627-14.209L42.8711-14.209C39.0625-14.209 36.9141-11.9141 36.9141-7.91016L36.9141 5.76172L27.2461 5.76172C25.9766 5.76172 25.2441 5.0293 25.2441 3.75977ZM39.6973-55.5176L48.6816-55.5176C49.7559-55.5176 50.4883-56.25 50.4883-57.373L50.4883-66.1133C50.4883-67.2363 49.7559-67.9688 48.6816-67.9688L39.6973-67.9688C38.623-67.9688 37.8906-67.2363 37.8906-66.1133L37.8906-57.373C37.8906-56.25 38.623-55.5176 39.6973-55.5176ZM61.8164-55.5176L70.752-55.5176C71.8262-55.5176 72.5586-56.25 72.5586-57.373L72.5586-66.1133C72.5586-67.2363 71.8262-67.9688 70.752-67.9688L61.8164-67.9688C60.6934-67.9688 60.0098-67.2363 60.0098-66.1133L60.0098-57.373C60.0098-56.25 60.6934-55.5176 61.8164-55.5176ZM39.6973-38.0371L48.6816-38.0371C49.7559-38.0371 50.4883-38.7695 50.4883-39.8926L50.4883-48.6328C50.4883-49.7559 49.7559-50.5371 48.6816-50.5371L39.6973-50.5371C38.623-50.5371 37.8906-49.7559 37.8906-48.6328L37.8906-39.8926C37.8906-38.7695 38.623-38.0371 39.6973-38.0371ZM61.8164-38.0371L70.752-38.0371C71.8262-38.0371 72.5586-38.7695 72.5586-39.8926L72.5586-48.6328C72.5586-49.7559 71.8262-50.5371 70.752-50.5371L61.8164-50.5371C60.6934-50.5371 60.0098-49.7559 60.0098-48.6328L60.0098-39.8926C60.0098-38.7695 60.6934-38.0371 61.8164-38.0371ZM39.6973-20.5566L48.6816-20.5566C49.7559-20.5566 50.4883-21.2891 50.4883-22.4121L50.4883-31.1523C50.4883-32.2754 49.7559-33.0566 48.6816-33.0566L39.6973-33.0566C38.623-33.0566 37.8906-32.2754 37.8906-31.1523L37.8906-22.4121C37.8906-21.2891 38.623-20.5566 39.6973-20.5566ZM61.8164-20.5566L70.752-20.5566C71.8262-20.5566 72.5586-21.2891 72.5586-22.4121L72.5586-31.1523C72.5586-32.2754 71.8262-33.0566 70.752-33.0566L61.8164-33.0566C60.6934-33.0566 60.0098-32.2754 60.0098-31.1523L60.0098-22.4121C60.0098-21.2891 60.6934-20.5566 61.8164-20.5566ZM46.3867-3.95508C46.3867-4.83398 46.9238-5.37109 47.8027-5.37109L62.6953-5.37109C63.5742-5.37109 64.1113-4.83398 64.1113-3.95508L64.1113 5.76172L46.3867 5.76172Z"/>
  </g>
  <g id="Semibold-M" transform="matrix(1 0 0 1 1989.46 1126)">
   <path d="M12.4512 6.64062C12.4512 13.6719 16.3574 17.9199 22.998 17.9199L84.6191 17.9199C91.2598 17.9199 95.166 13.6719 95.166 6.64062L95.166-77.0508C95.166-84.082 91.2598-88.3301 84.6191-88.3301L22.998-88.3301C16.3574-88.3301 12.4512-84.082 12.4512-77.0508ZM23.4375 4.63867L23.4375-75.0488C23.4375-76.5625 24.2188-77.3438 25.7324-77.3438L81.8848-77.3438C83.3984-77.3438 84.1797-76.5625 84.1797-75.0488L84.1797 4.63867C84.1797 6.15234 83.3984 6.93359 81.8848 6.93359L71.6797 6.93359L71.6797-6.98242C71.6797-11.084 69.6289-13.2324 65.7227-13.2324L41.8945-13.2324C37.9883-13.2324 35.9863-11.084 35.9863-6.98242L35.9863 6.93359L25.7324 6.93359C24.2188 6.93359 23.4375 6.15234 23.4375 4.63867ZM38.0371-56.4453L47.168-56.4453C48.3398-56.4453 49.0723-57.1777 49.0723-58.3496L49.0723-67.2852C49.0723-68.4082 48.3398-69.1895 47.168-69.1895L38.0371-69.1895C36.9141-69.1895 36.1816-68.4082 36.1816-67.2852L36.1816-58.3496C36.1816-57.1777 36.9141-56.4453 38.0371-56.4453ZM60.4004-56.4453L69.5801-56.4453C70.7031-56.4453 71.4355-57.1777 71.4355-58.3496L71.4355-67.2852C71.4355-68.4082 70.7031-69.1895 69.5801-69.1895L60.4004-69.1895C59.2773-69.1895 58.5449-68.4082 58.5449-67.2852L58.5449-58.3496C58.5449-57.1777 59.2773-56.4453 60.4004-56.4453ZM38.0371-38.2812L47.168-38.2812C48.3398-38.2812 49.0723-39.0625 49.0723-40.1855L49.0723-49.1211C49.0723-50.293 48.3398-51.0254 47.168-51.0254L38.0371-51.0254C36.9141-51.0254 36.1816-50.293 36.1816-49.1211L36.1816-40.1855C36.1816-39.0625 36.9141-38.2812 38.0371-38.2812ZM60.4004-38.2812L69.5801-38.2812C70.7031-38.2812 71.4355-39.0625 71.4355-40.1855L71.4355-49.1211C71.4355-50.293 70.7031-51.0254 69.5801-51.0254L60.4004-51.0254C59.2773-51.0254 58.5449-50.293 58.5449-49.1211L58.5449-40.1855C58.5449-39.0625 59.2773-38.2812 60.4004-38.2812ZM38.0371-20.1172L47.168-20.1172C48.3398-20.1172 49.0723-20.8984 49.0723-22.0215L49.0723-30.957C49.0723-32.1289 48.3398-32.8613 47.168-32.8613L38.0371-32.8613C36.9141-32.8613 36.1816-32.1289 36.1816-30.957L36.1816-22.0215C36.1816-20.8984 36.9141-20.1172 38.0371-20.1172ZM60.4004-20.1172L69.5801-20.1172C70.7031-20.1172 71.4355-20.8984 71.4355-22.0215L71.4355-30.957C71.4355-32.1289 70.7031-32.8613 69.5801-32.8613L60.4004-32.8613C59.2773-32.8613 58.5449-32.1289 58.5449-30.957L58.5449-22.0215C58.5449-20.8984 59.2773-20.1172 60.4004-20.1172ZM44.3359-3.80859C44.3359-4.78516 44.8242-5.27344 45.8008-5.27344L61.8652-5.27344C62.793-5.27344 63.3301-4.78516 63.3301-3.80859L63.3301 6.93359L44.3359 6.93359Z"/>
  </g>
  <g id="Medium-M" transform="matrix(1 0 0 1 1693.82 1126)">
   <path d="M12.4512 7.22656C12.4512 13.5254 16.0156 17.4316 21.9238 17.4316L83.4961 17.4316C89.4531 17.4316 93.0176 13.5254 93.0176 7.22656L93.0176-77.6367C93.0176-83.9844 89.4531-87.8418 83.4961-87.8418L21.9238-87.8418C16.0156-87.8418 12.4512-83.9844 12.4512-77.6367ZM22.0703 5.32227L22.0703-75.7324C22.0703-77.3926 22.9004-78.2227 24.6094-78.2227L80.8594-78.2227C82.5195-78.2227 83.3984-77.3926 83.3984-75.7324L83.3984 5.32227C83.3984 6.98242 82.5195 7.8125 80.8594 7.8125L70.2148 7.8125L70.2148-6.29883C70.2148-10.4492 68.2617-12.5 64.3066-12.5L41.1621-12.5C37.207-12.5 35.2539-10.4492 35.2539-6.29883L35.2539 7.8125L24.6094 7.8125C22.9004 7.8125 22.0703 6.98242 22.0703 5.32227ZM36.7676-57.1289L46.0938-57.1289C47.2168-57.1289 47.998-57.9102 47.998-59.082L47.998-68.1152C47.998-69.2871 47.2168-70.0684 46.0938-70.0684L36.7676-70.0684C35.5957-70.0684 34.8633-69.2871 34.8633-68.1152L34.8633-59.082C34.8633-57.9102 35.5957-57.1289 36.7676-57.1289ZM59.375-57.1289L68.6523-57.1289C69.8242-57.1289 70.6055-57.9102 70.6055-59.082L70.6055-68.1152C70.6055-69.2871 69.8242-70.0684 68.6523-70.0684L59.375-70.0684C58.2031-70.0684 57.4707-69.2871 57.4707-68.1152L57.4707-59.082C57.4707-57.9102 58.2031-57.1289 59.375-57.1289ZM36.7676-38.4766L46.0938-38.4766C47.2168-38.4766 47.998-39.2578 47.998-40.4297L47.998-49.4629C47.998-50.6348 47.2168-51.416 46.0938-51.416L36.7676-51.416C35.5957-51.416 34.8633-50.6348 34.8633-49.4629L34.8633-40.4297C34.8633-39.2578 35.5957-38.4766 36.7676-38.4766ZM59.375-38.4766L68.6523-38.4766C69.8242-38.4766 70.6055-39.2578 70.6055-40.4297L70.6055-49.4629C70.6055-50.6348 69.8242-51.416 68.6523-51.416L59.375-51.416C58.2031-51.416 57.4707-50.6348 57.4707-49.4629L57.4707-40.4297C57.4707-39.2578 58.2031-38.4766 59.375-38.4766ZM36.7676-19.8242L46.0938-19.8242C47.2168-19.8242 47.998-20.6055 47.998-21.7773L47.998-30.8105C47.998-31.9824 47.2168-32.7637 46.0938-32.7637L36.7676-32.7637C35.5957-32.7637 34.8633-31.9824 34.8633-30.8105L34.8633-21.7773C34.8633-20.6055 35.5957-19.8242 36.7676-19.8242ZM59.375-19.8242L68.6523-19.8242C69.8242-19.8242 70.6055-20.6055 70.6055-21.7773L70.6055-30.8105C70.6055-31.9824 69.8242-32.7637 68.6523-32.7637L59.375-32.7637C58.2031-32.7637 57.4707-31.9824 57.4707-30.8105L57.4707-21.7773C57.4707-20.6055 58.2031-19.8242 59.375-19.8242ZM42.7734-3.71094C42.7734-4.73633 43.2617-5.22461 44.2871-5.22461L61.1816-5.22461C62.207-5.22461 62.6953-4.73633 62.6953-3.71094L62.6953 7.8125L42.7734 7.8125Z"/>
  </g>
  <g id="Regular-M" transform="matrix(1 0 0 1 1398.53 1126)">
   <path d="M12.4512 7.95898C12.4512 13.3789 15.5762 16.8457 20.5566 16.8457L82.1289 16.8457C87.0605 16.8457 90.1855 13.3789 90.1855 7.95898L90.1855-78.3691C90.1855-83.7891 87.0605-87.2559 82.1289-87.2559L20.5566-87.2559C15.5762-87.2559 12.4512-83.7891 12.4512-78.3691ZM20.3125 6.15234L20.3125-76.5625C20.3125-78.5156 21.1914-79.3945 23.1445-79.3945L79.541-79.3945C81.4453-79.3945 82.3242-78.5156 82.3242-76.5625L82.3242 6.15234C82.3242 8.05664 81.4453 8.98438 79.541 8.98438L68.3105 8.98438L68.3105-5.41992C68.3105-9.61914 66.4551-11.5723 62.4512-11.5723L40.1855-11.5723C36.1816-11.5723 34.3262-9.61914 34.3262-5.41992L34.3262 8.98438L23.1445 8.98438C21.1914 8.98438 20.3125 8.05664 20.3125 6.15234ZM35.1074-58.0566L44.6289-58.0566C45.8008-58.0566 46.6309-58.8379 46.6309-60.0586L46.6309-69.2871C46.6309-70.459 45.8008-71.2891 44.6289-71.2891L35.1074-71.2891C33.9355-71.2891 33.2031-70.459 33.2031-69.2871L33.2031-60.0586C33.2031-58.8379 33.9355-58.0566 35.1074-58.0566ZM58.0078-58.0566L67.4805-58.0566C68.6523-58.0566 69.4824-58.8379 69.4824-60.0586L69.4824-69.2871C69.4824-70.459 68.6523-71.2891 67.4805-71.2891L58.0078-71.2891C56.7871-71.2891 56.0547-70.459 56.0547-69.2871L56.0547-60.0586C56.0547-58.8379 56.7871-58.0566 58.0078-58.0566ZM35.1074-38.7207L44.6289-38.7207C45.8008-38.7207 46.6309-39.502 46.6309-40.7227L46.6309-49.9512C46.6309-51.123 45.8008-51.9531 44.6289-51.9531L35.1074-51.9531C33.9355-51.9531 33.2031-51.123 33.2031-49.9512L33.2031-40.7227C33.2031-39.502 33.9355-38.7207 35.1074-38.7207ZM58.0078-38.7207L67.4805-38.7207C68.6523-38.7207 69.4824-39.502 69.4824-40.7227L69.4824-49.9512C69.4824-51.123 68.6523-51.9531 67.4805-51.9531L58.0078-51.9531C56.7871-51.9531 56.0547-51.123 56.0547-49.9512L56.0547-40.7227C56.0547-39.502 56.7871-38.7207 58.0078-38.7207ZM35.1074-19.3848L44.6289-19.3848C45.8008-19.3848 46.6309-20.2148 46.6309-21.3867L46.6309-30.6152C46.6309-31.8359 45.8008-32.6172 44.6289-32.6172L35.1074-32.6172C33.9355-32.6172 33.2031-31.8359 33.2031-30.6152L33.2031-21.3867C33.2031-20.2148 33.9355-19.3848 35.1074-19.3848ZM58.0078-19.3848L67.4805-19.3848C68.6523-19.3848 69.4824-20.2148 69.4824-21.3867L69.4824-30.6152C69.4824-31.8359 68.6523-32.6172 67.4805-32.6172L58.0078-32.6172C56.7871-32.6172 56.0547-31.8359 56.0547-30.6152L56.0547-21.3867C56.0547-20.2148 56.7871-19.3848 58.0078-19.3848ZM40.7227-3.61328C40.7227-4.63867 41.2598-5.17578 42.2852-5.17578L60.3516-5.17578C61.4258-5.17578 61.9141-4.63867 61.9141-3.61328L61.9141 8.98438L40.7227 8.98438Z"/>
  </g>
  <g id="Light-M" transform="matrix(1 0 0 1 1103.43 1126)">
   <path d="M12.4512 8.25195C12.4512 13.2812 15.1855 16.2109 19.9219 16.2109L79.4922 16.2109C84.2285 16.2109 86.9629 13.2812 86.9629 8.25195L86.9629-78.6133C86.9629-83.6426 84.2285-86.5723 79.4922-86.5723L19.9219-86.5723C15.1855-86.5723 12.4512-83.6426 12.4512-78.6133ZM18.5059 7.08008L18.5059-77.4414C18.5059-79.6387 19.4336-80.5664 21.6309-80.5664L77.7832-80.5664C79.9805-80.5664 80.9082-79.6387 80.9082-77.4414L80.9082 7.08008C80.9082 9.27734 79.9805 10.2051 77.7832 10.2051L66.5527 10.2051L66.5527-3.80859C66.5527-7.76367 64.7949-9.57031 60.9863-9.57031L38.4766-9.57031C34.668-9.57031 32.9102-7.76367 32.9102-3.80859L32.9102 10.2051L21.6309 10.2051C19.4336 10.2051 18.5059 9.27734 18.5059 7.08008ZM33.5938-58.1543L43.7012-58.1543C44.7754-58.1543 45.459-58.8867 45.459-59.9609L45.459-69.8242C45.459-70.8984 44.7754-71.6309 43.7012-71.6309L33.5938-71.6309C32.5195-71.6309 31.8359-70.8984 31.8359-69.8242L31.8359-59.9609C31.8359-58.8867 32.5195-58.1543 33.5938-58.1543ZM55.6641-58.1543L65.7715-58.1543C66.8457-58.1543 67.5293-58.8867 67.5293-59.9609L67.5293-69.8242C67.5293-70.8984 66.8457-71.6309 65.7715-71.6309L55.6641-71.6309C54.5898-71.6309 53.9551-70.8984 53.9551-69.8242L53.9551-59.9609C53.9551-58.8867 54.5898-58.1543 55.6641-58.1543ZM33.5938-37.9883L43.7012-37.9883C44.7754-37.9883 45.459-38.7207 45.459-39.7949L45.459-49.6582C45.459-50.7324 44.7754-51.4648 43.7012-51.4648L33.5938-51.4648C32.5195-51.4648 31.8359-50.7324 31.8359-49.6582L31.8359-39.7949C31.8359-38.7207 32.5195-37.9883 33.5938-37.9883ZM55.6641-37.9883L65.7715-37.9883C66.8457-37.9883 67.5293-38.7207 67.5293-39.7949L67.5293-49.6582C67.5293-50.7324 66.8457-51.4648 65.7715-51.4648L55.6641-51.4648C54.5898-51.4648 53.9551-50.7324 53.9551-49.6582L53.9551-39.7949C53.9551-38.7207 54.5898-37.9883 55.6641-37.9883ZM33.5938-17.8223L43.7012-17.8223C44.7754-17.8223 45.459-18.5547 45.459-19.6289L45.459-29.4922C45.459-30.5664 44.7754-31.2988 43.7012-31.2988L33.5938-31.2988C32.5195-31.2988 31.8359-30.5664 31.8359-29.4922L31.8359-19.6289C31.8359-18.5547 32.5195-17.8223 33.5938-17.8223ZM55.6641-17.8223L65.7715-17.8223C66.8457-17.8223 67.5293-18.5547 67.5293-19.6289L67.5293-29.4922C67.5293-30.5664 66.8457-31.2988 65.7715-31.2988L55.6641-31.2988C54.5898-31.2988 53.9551-30.5664 53.9551-29.4922L53.9551-19.6289C53.9551-18.5547 54.5898-17.8223 55.6641-17.8223ZM37.9883-2.63672C37.9883-3.90625 38.5742-4.49219 39.8438-4.49219L59.5703-4.49219C60.8398-4.49219 61.4746-3.90625 61.4746-2.63672L61.4746 10.2051L37.9883 10.2051Z"/>
  </g>
  <g id="Thin-M" transform="matrix(1 0 0 1 808.864 1126)">
   <path d="M12.4512 8.64258C12.4512 13.1348 14.6973 15.4297 19.0918 15.4297L76.0254 15.4297C80.4199 15.4297 82.666 13.1348 82.666 8.64258L82.666-78.9062C82.666-83.3984 80.4199-85.7422 76.0254-85.7422L19.0918-85.7422C14.6973-85.7422 12.4512-83.3984 12.4512-78.9062ZM16.0645 8.25195L16.0645-78.5645C16.0645-81.1035 17.041-82.0801 19.6289-82.0801L75.4883-82.0801C78.0273-82.0801 79.0039-81.1035 79.0039-78.5645L79.0039 8.25195C79.0039 10.791 78.0273 11.7676 75.4883 11.7676L64.1602 11.7676L64.1602-1.70898C64.1602-5.32227 62.5488-6.93359 58.9844-6.93359L36.1816-6.93359C32.6172-6.93359 31.0059-5.32227 31.0059-1.70898L31.0059 11.7676L19.6289 11.7676C17.041 11.7676 16.0645 10.791 16.0645 8.25195ZM31.543-58.3008L42.4805-58.3008C43.4082-58.3008 43.9453-58.9355 43.9453-59.8145L43.9453-70.6055C43.9453-71.4844 43.4082-72.1191 42.4805-72.1191L31.543-72.1191C30.6641-72.1191 30.127-71.4844 30.127-70.6055L30.127-59.8145C30.127-58.9355 30.6641-58.3008 31.543-58.3008ZM52.5879-58.3008L63.5254-58.3008C64.4531-58.3008 64.9902-58.9355 64.9902-59.8145L64.9902-70.6055C64.9902-71.4844 64.4531-72.1191 63.5254-72.1191L52.5879-72.1191C51.709-72.1191 51.1719-71.4844 51.1719-70.6055L51.1719-59.8145C51.1719-58.9355 51.709-58.3008 52.5879-58.3008ZM31.543-37.0117L42.4805-37.0117C43.4082-37.0117 43.9453-37.6465 43.9453-38.5254L43.9453-49.3164C43.9453-50.1953 43.4082-50.8301 42.4805-50.8301L31.543-50.8301C30.6641-50.8301 30.127-50.1953 30.127-49.3164L30.127-38.5254C30.127-37.6465 30.6641-37.0117 31.543-37.0117ZM52.5879-37.0117L63.5254-37.0117C64.4531-37.0117 64.9902-37.6465 64.9902-38.5254L64.9902-49.3164C64.9902-50.1953 64.4531-50.8301 63.5254-50.8301L52.5879-50.8301C51.709-50.8301 51.1719-50.1953 51.1719-49.3164L51.1719-38.5254C51.1719-37.6465 51.709-37.0117 52.5879-37.0117ZM31.543-15.7227L42.4805-15.7227C43.4082-15.7227 43.9453-16.3574 43.9453-17.2363L43.9453-28.0273C43.9453-28.9062 43.4082-29.541 42.4805-29.541L31.543-29.541C30.6641-29.541 30.127-28.9062 30.127-28.0273L30.127-17.2363C30.127-16.3574 30.6641-15.7227 31.543-15.7227ZM52.5879-15.7227L63.5254-15.7227C64.4531-15.7227 64.9902-16.3574 64.9902-17.2363L64.9902-28.0273C64.9902-28.9062 64.4531-29.541 63.5254-29.541L52.5879-29.541C51.709-29.541 51.1719-28.9062 51.1719-28.0273L51.1719-17.2363C51.1719-16.3574 51.709-15.7227 52.5879-15.7227ZM34.3262-1.31836C34.3262-2.88086 35.0586-3.66211 36.6211-3.66211L58.5449-3.66211C60.1074-3.66211 60.8398-2.88086 60.8398-1.31836L60.8398 11.7676L34.3262 11.7676Z"/>
  </g>
  <g id="Ultralight-M" transform="matrix(1 0 0 1 513.251 1126)">
   <path d="M12.4512 8.83789C12.4512 13.0371 14.4043 14.9902 18.6523 14.9902L74.2676 14.9902C78.4668 14.9902 80.4688 13.0371 80.4688 8.83789L80.4688-79.1016C80.4688-83.3008 78.4668-85.2539 74.2676-85.2539L18.6523-85.2539C14.4043-85.2539 12.4512-83.3008 12.4512-79.1016ZM14.8438 8.83789L14.8438-79.1016C14.8438-81.8848 15.8203-82.8613 18.6035-82.8613L74.3164-82.8613C77.0508-82.8613 78.0762-81.8848 78.0762-79.1016L78.0762 8.83789C78.0762 11.6211 77.0508 12.5977 74.3164 12.5977L62.9395 12.5977L62.9395-0.634766C62.9395-4.05273 61.4258-5.61523 58.0078-5.61523L34.9609-5.61523C31.543-5.61523 30.0293-4.05273 30.0293-0.634766L30.0293 12.5977L18.6035 12.5977C15.8203 12.5977 14.8438 11.6211 14.8438 8.83789ZM30.5176-58.3984L41.8945-58.3984C42.6758-58.3984 43.1641-58.9355 43.1641-59.7656L43.1641-70.9961C43.1641-71.8262 42.6758-72.3633 41.8945-72.3633L30.5176-72.3633C29.6875-72.3633 29.1992-71.8262 29.1992-70.9961L29.1992-59.7656C29.1992-58.9355 29.6875-58.3984 30.5176-58.3984ZM51.0254-58.3984L62.4023-58.3984C63.1836-58.3984 63.7207-58.9355 63.7207-59.7656L63.7207-70.9961C63.7207-71.8262 63.1836-72.3633 62.4023-72.3633L51.0254-72.3633C50.2441-72.3633 49.707-71.8262 49.707-70.9961L49.707-59.7656C49.707-58.9355 50.2441-58.3984 51.0254-58.3984ZM30.5176-36.5234L41.8945-36.5234C42.6758-36.5234 43.1641-37.1094 43.1641-37.8906L43.1641-49.1211C43.1641-49.9512 42.6758-50.4883 41.8945-50.4883L30.5176-50.4883C29.6875-50.4883 29.1992-49.9512 29.1992-49.1211L29.1992-37.8906C29.1992-37.1094 29.6875-36.5234 30.5176-36.5234ZM51.0254-36.5234L62.4023-36.5234C63.1836-36.5234 63.7207-37.1094 63.7207-37.8906L63.7207-49.1211C63.7207-49.9512 63.1836-50.4883 62.4023-50.4883L51.0254-50.4883C50.2441-50.4883 49.707-49.9512 49.707-49.1211L49.707-37.8906C49.707-37.1094 50.2441-36.5234 51.0254-36.5234ZM30.5176-14.6484L41.8945-14.6484C42.6758-14.6484 43.1641-15.2344 43.1641-16.0156L43.1641-27.2949C43.1641-28.0762 42.6758-28.6621 41.8945-28.6621L30.5176-28.6621C29.6875-28.6621 29.1992-28.0762 29.1992-27.2949L29.1992-16.0156C29.1992-15.2344 29.6875-14.6484 30.5176-14.6484ZM51.0254-14.6484L62.4023-14.6484C63.1836-14.6484 63.7207-15.2344 63.7207-16.0156L63.7207-27.2949C63.7207-28.0762 63.1836-28.6621 62.4023-28.6621L51.0254-28.6621C50.2441-28.6621 49.707-28.0762 49.707-27.2949L49.707-16.0156C49.707-15.2344 50.2441-14.6484 51.0254-14.6484ZM32.4219-0.683594C32.4219-2.39258 33.252-3.17383 34.9609-3.17383L58.0078-3.17383C59.7168-3.17383 60.5469-2.39258 60.5469-0.683594L60.5469 12.5977L32.4219 12.5977Z"/>
  </g>
  <g id="Black-S" transform="matrix(1 0 0 1 2887.18 696)">
   <path d="M9.76562-4.63867C9.76562 3.56445 14.1602 8.1543 22.0703 8.1543L70.3613 8.1543C78.2715 8.1543 82.666 3.56445 82.666-4.63867L82.666-65.7715C82.666-73.9746 78.2715-78.5645 70.3613-78.5645L22.0703-78.5645C14.1602-78.5645 9.76562-73.9746 9.76562-65.7715ZM23.4863-6.49414L23.4863-63.916C23.4863-64.4531 23.9258-64.8926 24.4629-64.8926L67.9688-64.8926C68.5059-64.8926 68.9453-64.4531 68.9453-63.916L68.9453-6.49414C68.9453-5.95703 68.5059-5.51758 67.9688-5.51758L61.6211-5.51758L61.6211-15.6738C61.6211-18.7012 59.7168-20.752 56.8359-20.752L35.6445-20.752C32.7637-20.752 30.8594-18.7012 30.8594-15.6738L30.8594-5.51758L24.4629-5.51758C23.9258-5.51758 23.4863-5.95703 23.4863-6.49414ZM34.5703-49.2188L41.1621-49.2188C41.9434-49.2188 42.4805-49.7559 42.4805-50.5859L42.4805-57.0801C42.4805-57.9102 41.9434-58.4473 41.1621-58.4473L34.5703-58.4473C33.7891-58.4473 33.252-57.9102 33.252-57.0801L33.252-50.5859C33.252-49.7559 33.7891-49.2188 34.5703-49.2188ZM51.3184-49.2188L57.9102-49.2188C58.6914-49.2188 59.2285-49.7559 59.2285-50.5859L59.2285-57.0801C59.2285-57.9102 58.6914-58.4473 57.9102-58.4473L51.3184-58.4473C50.5371-58.4473 50-57.9102 50-57.0801L50-50.5859C50-49.7559 50.5371-49.2188 51.3184-49.2188ZM34.5703-36.9141L41.1621-36.9141C41.9434-36.9141 42.4805-37.4512 42.4805-38.2812L42.4805-44.7754C42.4805-45.6055 41.9434-46.1426 41.1621-46.1426L34.5703-46.1426C33.7891-46.1426 33.252-45.6055 33.252-44.7754L33.252-38.2812C33.252-37.4512 33.7891-36.9141 34.5703-36.9141ZM51.3184-36.9141L57.9102-36.9141C58.6914-36.9141 59.2285-37.4512 59.2285-38.2812L59.2285-44.7754C59.2285-45.6055 58.6914-46.1426 57.9102-46.1426L51.3184-46.1426C50.5371-46.1426 50-45.6055 50-44.7754L50-38.2812C50-37.4512 50.5371-36.9141 51.3184-36.9141ZM34.5703-24.6094L41.1621-24.6094C41.9434-24.6094 42.4805-25.1465 42.4805-25.9766L42.4805-32.4707C42.4805-33.3008 41.9434-33.8379 41.1621-33.8379L34.5703-33.8379C33.7891-33.8379 33.252-33.3008 33.252-32.4707L33.252-25.9766C33.252-25.1465 33.7891-24.6094 34.5703-24.6094ZM51.3184-24.6094L57.9102-24.6094C58.6914-24.6094 59.2285-25.1465 59.2285-25.9766L59.2285-32.4707C59.2285-33.3008 58.6914-33.8379 57.9102-33.8379L51.3184-33.8379C50.5371-33.8379 50-33.3008 50-32.4707L50-25.9766C50-25.1465 50.5371-24.6094 51.3184-24.6094ZM40.625-10.9863C40.625-11.5723 41.0156-11.9629 41.6016-11.9629L50.8789-11.9629C51.4648-11.9629 51.8555-11.5723 51.8555-10.9863L51.8555-5.51758L40.625-5.51758Z"/>
  </g>
  <g id="Heavy-S" transform="matrix(1 0 0 1 2591.69 696)">
   <path d="M9.76562-3.90625C9.76562 3.41797 13.7207 7.61719 20.752 7.61719L69.2383 7.61719C76.2207 7.61719 80.2246 3.41797 80.2246-3.90625L80.2246-66.5039C80.2246-73.8281 76.2207-78.0273 69.2383-78.0273L20.752-78.0273C13.7207-78.0273 9.76562-73.8281 9.76562-66.5039ZM21.9238-5.71289L21.9238-64.6973C21.9238-65.4297 22.4121-65.918 23.1445-65.918L66.8457-65.918C67.5781-65.918 68.0664-65.4297 68.0664-64.6973L68.0664-5.71289C68.0664-4.98047 67.5781-4.49219 66.8457-4.49219L59.9121-4.49219L59.9121-14.9414C59.9121-18.0664 58.1055-20.0195 55.127-20.0195L34.8633-20.0195C31.8848-20.0195 30.0781-18.0664 30.0781-14.9414L30.0781-4.49219L23.1445-4.49219C22.4121-4.49219 21.9238-4.98047 21.9238-5.71289ZM33.1055-50.0977L39.7949-50.0977C40.625-50.0977 41.2109-50.6836 41.2109-51.5625L41.2109-58.1543C41.2109-59.0332 40.625-59.5703 39.7949-59.5703L33.1055-59.5703C32.2754-59.5703 31.6895-59.0332 31.6895-58.1543L31.6895-51.5625C31.6895-50.6836 32.2754-50.0977 33.1055-50.0977ZM50.1953-50.0977L56.9336-50.0977C57.7637-50.0977 58.3008-50.6836 58.3008-51.5625L58.3008-58.1543C58.3008-59.0332 57.7637-59.5703 56.9336-59.5703L50.1953-59.5703C49.3652-59.5703 48.8281-59.0332 48.8281-58.1543L48.8281-51.5625C48.8281-50.6836 49.3652-50.0977 50.1953-50.0977ZM33.1055-37.2559L39.7949-37.2559C40.625-37.2559 41.2109-37.793 41.2109-38.6719L41.2109-45.2637C41.2109-46.1426 40.625-46.7285 39.7949-46.7285L33.1055-46.7285C32.2754-46.7285 31.6895-46.1426 31.6895-45.2637L31.6895-38.6719C31.6895-37.793 32.2754-37.2559 33.1055-37.2559ZM50.1953-37.2559L56.9336-37.2559C57.7637-37.2559 58.3008-37.793 58.3008-38.6719L58.3008-45.2637C58.3008-46.1426 57.7637-46.7285 56.9336-46.7285L50.1953-46.7285C49.3652-46.7285 48.8281-46.1426 48.8281-45.2637L48.8281-38.6719C48.8281-37.793 49.3652-37.2559 50.1953-37.2559ZM33.1055-24.3652L39.7949-24.3652C40.625-24.3652 41.2109-24.9512 41.2109-25.8301L41.2109-32.373C41.2109-33.252 40.625-33.8379 39.7949-33.8379L33.1055-33.8379C32.2754-33.8379 31.6895-33.252 31.6895-32.373L31.6895-25.8301C31.6895-24.9512 32.2754-24.3652 33.1055-24.3652ZM50.1953-24.3652L56.9336-24.3652C57.7637-24.3652 58.3008-24.9512 58.3008-25.8301L58.3008-32.373C58.3008-33.252 57.7637-33.8379 56.9336-33.8379L50.1953-33.8379C49.3652-33.8379 48.8281-33.252 48.8281-32.373L48.8281-25.8301C48.8281-24.9512 49.3652-24.3652 50.1953-24.3652ZM38.8672-10.9863C38.8672-11.5723 39.2578-11.9629 39.8926-11.9629L50.1465-11.9629C50.7324-11.9629 51.123-11.5723 51.123-10.9863L51.123-4.49219L38.8672-4.49219Z"/>
  </g>
  <g id="Bold-S" transform="matrix(1 0 0 1 2296.37 696)">
   <path d="M9.76562-3.07617C9.76562 3.22266 13.2812 7.03125 19.2383 7.03125L67.9688 7.03125C73.9258 7.03125 77.4414 3.22266 77.4414-3.07617L77.4414-67.334C77.4414-73.6816 73.9258-77.4414 67.9688-77.4414L19.2383-77.4414C13.2812-77.4414 9.76562-73.6816 9.76562-67.334ZM20.166-4.88281L20.166-65.5762C20.166-66.5039 20.7031-67.0898 21.6797-67.0898L65.5762-67.0898C66.5039-67.0898 67.0898-66.5039 67.0898-65.5762L67.0898-4.88281C67.0898-3.90625 66.5039-3.36914 65.5762-3.36914L58.0078-3.36914L58.0078-14.1602C58.0078-17.3828 56.2988-19.1895 53.2715-19.1895L33.9844-19.1895C30.957-19.1895 29.248-17.3828 29.248-14.1602L29.248-3.36914L21.6797-3.36914C20.7031-3.36914 20.166-3.90625 20.166-4.88281ZM31.4453-51.123L38.2812-51.123C39.1602-51.123 39.7949-51.7578 39.7949-52.6367L39.7949-59.3262C39.7949-60.2539 39.1602-60.8887 38.2812-60.8887L31.4453-60.8887C30.5176-60.8887 29.9316-60.2539 29.9316-59.3262L29.9316-52.6367C29.9316-51.7578 30.5176-51.123 31.4453-51.123ZM48.9258-51.123L55.8105-51.123C56.6895-51.123 57.2754-51.7578 57.2754-52.6367L57.2754-59.3262C57.2754-60.2539 56.6895-60.8887 55.8105-60.8887L48.9258-60.8887C48.0469-60.8887 47.4609-60.2539 47.4609-59.3262L47.4609-52.6367C47.4609-51.7578 48.0469-51.123 48.9258-51.123ZM31.4453-37.5977L38.2812-37.5977C39.1602-37.5977 39.7949-38.2324 39.7949-39.1602L39.7949-45.8496C39.7949-46.7285 39.1602-47.3633 38.2812-47.3633L31.4453-47.3633C30.5176-47.3633 29.9316-46.7285 29.9316-45.8496L29.9316-39.1602C29.9316-38.2324 30.5176-37.5977 31.4453-37.5977ZM48.9258-37.5977L55.8105-37.5977C56.6895-37.5977 57.2754-38.2324 57.2754-39.1602L57.2754-45.8496C57.2754-46.7285 56.6895-47.3633 55.8105-47.3633L48.9258-47.3633C48.0469-47.3633 47.4609-46.7285 47.4609-45.8496L47.4609-39.1602C47.4609-38.2324 48.0469-37.5977 48.9258-37.5977ZM31.4453-24.1211L38.2812-24.1211C39.1602-24.1211 39.7949-24.707 39.7949-25.6348L39.7949-32.3242C39.7949-33.252 39.1602-33.8379 38.2812-33.8379L31.4453-33.8379C30.5176-33.8379 29.9316-33.252 29.9316-32.3242L29.9316-25.6348C29.9316-24.707 30.5176-24.1211 31.4453-24.1211ZM48.9258-24.1211L55.8105-24.1211C56.6895-24.1211 57.2754-24.707 57.2754-25.6348L57.2754-32.3242C57.2754-33.252 56.6895-33.8379 55.8105-33.8379L48.9258-33.8379C48.0469-33.8379 47.4609-33.252 47.4609-32.3242L47.4609-25.6348C47.4609-24.707 48.0469-24.1211 48.9258-24.1211ZM36.9629-10.9375C36.9629-11.6211 37.3047-11.9629 37.9883-11.9629L49.2676-11.9629C49.9512-11.9629 50.293-11.6211 50.293-10.9375L50.293-3.36914L36.9629-3.36914Z"/>
  </g>
  <g id="Semibold-S" transform="matrix(1 0 0 1 2000.59 696)">
   <path d="M9.76562-2.49023C9.76562 3.125 12.9395 6.5918 18.2129 6.5918L67.1387 6.5918C72.3633 6.5918 75.5859 3.125 75.5859-2.49023L75.5859-67.9199C75.5859-73.5352 72.3633-77.0508 67.1387-77.0508L18.2129-77.0508C12.9395-77.0508 9.76562-73.5352 9.76562-67.9199ZM18.9453-4.24805L18.9453-66.1621C18.9453-67.2852 19.5312-67.8711 20.6543-67.8711L64.6973-67.8711C65.7715-67.8711 66.4062-67.2852 66.4062-66.1621L66.4062-4.24805C66.4062-3.17383 65.7715-2.53906 64.6973-2.53906L56.6895-2.53906L56.6895-13.623C56.6895-16.8945 55.0781-18.6523 51.9531-18.6523L33.3984-18.6523C30.2734-18.6523 28.6621-16.8945 28.6621-13.623L28.6621-2.53906L20.6543-2.53906C19.5312-2.53906 18.9453-3.17383 18.9453-4.24805ZM30.2734-51.8066L37.2559-51.8066C38.1836-51.8066 38.8184-52.4414 38.8184-53.418L38.8184-60.1562C38.8184-61.1328 38.1836-61.7676 37.2559-61.7676L30.2734-61.7676C29.3457-61.7676 28.7598-61.1328 28.7598-60.1562L28.7598-53.418C28.7598-52.4414 29.3457-51.8066 30.2734-51.8066ZM48.0957-51.8066L55.0293-51.8066C55.957-51.8066 56.5918-52.4414 56.5918-53.418L56.5918-60.1562C56.5918-61.1328 55.957-61.7676 55.0293-61.7676L48.0957-61.7676C47.1191-61.7676 46.5332-61.1328 46.5332-60.1562L46.5332-53.418C46.5332-52.4414 47.1191-51.8066 48.0957-51.8066ZM30.2734-37.8906L37.2559-37.8906C38.1836-37.8906 38.8184-38.4766 38.8184-39.4531L38.8184-46.1914C38.8184-47.168 38.1836-47.8027 37.2559-47.8027L30.2734-47.8027C29.3457-47.8027 28.7598-47.168 28.7598-46.1914L28.7598-39.4531C28.7598-38.4766 29.3457-37.8906 30.2734-37.8906ZM48.0957-37.8906L55.0293-37.8906C55.957-37.8906 56.5918-38.4766 56.5918-39.4531L56.5918-46.1914C56.5918-47.168 55.957-47.8027 55.0293-47.8027L48.0957-47.8027C47.1191-47.8027 46.5332-47.168 46.5332-46.1914L46.5332-39.4531C46.5332-38.4766 47.1191-37.8906 48.0957-37.8906ZM30.2734-23.9258L37.2559-23.9258C38.1836-23.9258 38.8184-24.5605 38.8184-25.4883L38.8184-32.2754C38.8184-33.2031 38.1836-33.8379 37.2559-33.8379L30.2734-33.8379C29.3457-33.8379 28.7598-33.2031 28.7598-32.2754L28.7598-25.4883C28.7598-24.5605 29.3457-23.9258 30.2734-23.9258ZM48.0957-23.9258L55.0293-23.9258C55.957-23.9258 56.5918-24.5605 56.5918-25.4883L56.5918-32.2754C56.5918-33.2031 55.957-33.8379 55.0293-33.8379L48.0957-33.8379C47.1191-33.8379 46.5332-33.2031 46.5332-32.2754L46.5332-25.4883C46.5332-24.5605 47.1191-23.9258 48.0957-23.9258ZM35.5957-10.9375C35.5957-11.6211 35.9863-12.0117 36.6699-12.0117L48.6816-12.0117C49.3652-12.0117 49.7559-11.6211 49.7559-10.9375L49.7559-2.53906L35.5957-2.53906Z"/>
  </g>
  <g id="Medium-S" transform="matrix(1 0 0 1 1704.61 696)">
   <path d="M9.76562-2.09961C9.76562 3.02734 12.6953 6.29883 17.4316 6.29883L66.4551 6.29883C71.1914 6.29883 74.1211 3.02734 74.1211-2.09961L74.1211-68.3594C74.1211-73.4863 71.1914-76.709 66.4551-76.709L17.4316-76.709C12.6953-76.709 9.76562-73.4863 9.76562-68.3594ZM18.0176-3.80859L18.0176-66.6504C18.0176-67.8223 18.6523-68.5059 19.873-68.5059L64.0137-68.5059C65.2344-68.5059 65.8691-67.8223 65.8691-66.6504L65.8691-3.80859C65.8691-2.58789 65.2344-1.95312 64.0137-1.95312L55.7129-1.95312L55.7129-13.1836C55.7129-16.5527 54.1504-18.2129 50.9766-18.2129L32.959-18.2129C29.7852-18.2129 28.1738-16.5527 28.1738-13.1836L28.1738-1.95312L19.873-1.95312C18.6523-1.95312 18.0176-2.58789 18.0176-3.80859ZM29.3945-52.3438L36.4258-52.3438C37.4023-52.3438 38.0371-53.0273 38.0371-53.9551L38.0371-60.791C38.0371-61.7676 37.4023-62.4023 36.4258-62.4023L29.3945-62.4023C28.4668-62.4023 27.832-61.7676 27.832-60.791L27.832-53.9551C27.832-53.0273 28.4668-52.3438 29.3945-52.3438ZM47.4121-52.3438L54.4434-52.3438C55.4199-52.3438 56.0547-53.0273 56.0547-53.9551L56.0547-60.791C56.0547-61.7676 55.4199-62.4023 54.4434-62.4023L47.4121-62.4023C46.4355-62.4023 45.8496-61.7676 45.8496-60.791L45.8496-53.9551C45.8496-53.0273 46.4355-52.3438 47.4121-52.3438ZM29.3945-38.0859L36.4258-38.0859C37.4023-38.0859 38.0371-38.7207 38.0371-39.6973L38.0371-46.4844C38.0371-47.4609 37.4023-48.1445 36.4258-48.1445L29.3945-48.1445C28.4668-48.1445 27.832-47.4609 27.832-46.4844L27.832-39.6973C27.832-38.7207 28.4668-38.0859 29.3945-38.0859ZM47.4121-38.0859L54.4434-38.0859C55.4199-38.0859 56.0547-38.7207 56.0547-39.6973L56.0547-46.4844C56.0547-47.4609 55.4199-48.1445 54.4434-48.1445L47.4121-48.1445C46.4355-48.1445 45.8496-47.4609 45.8496-46.4844L45.8496-39.6973C45.8496-38.7207 46.4355-38.0859 47.4121-38.0859ZM29.3945-23.7793L36.4258-23.7793C37.4023-23.7793 38.0371-24.4141 38.0371-25.3906L38.0371-32.2266C38.0371-33.2031 37.4023-33.8379 36.4258-33.8379L29.3945-33.8379C28.4668-33.8379 27.832-33.2031 27.832-32.2266L27.832-25.3906C27.832-24.4141 28.4668-23.7793 29.3945-23.7793ZM47.4121-23.7793L54.4434-23.7793C55.4199-23.7793 56.0547-24.4141 56.0547-25.3906L56.0547-32.2266C56.0547-33.2031 55.4199-33.8379 54.4434-33.8379L47.4121-33.8379C46.4355-33.8379 45.8496-33.2031 45.8496-32.2266L45.8496-25.3906C45.8496-24.4141 46.4355-23.7793 47.4121-23.7793ZM34.5703-10.9375C34.5703-11.6211 34.9609-12.0117 35.6445-12.0117L48.2422-12.0117C48.9746-12.0117 49.3164-11.6211 49.3164-10.9375L49.3164-1.95312L34.5703-1.95312Z"/>
  </g>
  <g id="Regular-S" transform="matrix(1 0 0 1 1408.83 696)">
   <path d="M9.76562-1.51367C9.76562 2.92969 12.4023 5.85938 16.4062 5.85938L65.625 5.85938C69.6289 5.85938 72.2656 2.92969 72.2656-1.51367L72.2656-68.9453C72.2656-73.3398 69.6289-76.3184 65.625-76.3184L16.4062-76.3184C12.4023-76.3184 9.76562-73.3398 9.76562-68.9453ZM16.7969-3.22266L16.7969-67.2363C16.7969-68.6035 17.4805-69.2871 18.8477-69.2871L63.1348-69.2871C64.502-69.2871 65.1855-68.6035 65.1855-67.2363L65.1855-3.22266C65.1855-1.85547 64.502-1.17188 63.1348-1.17188L54.3945-1.17188L54.3945-12.6465C54.3945-16.0645 52.9297-17.6758 49.6582-17.6758L32.3242-17.6758C29.1016-17.6758 27.5879-16.0645 27.5879-12.6465L27.5879-1.17188L18.8477-1.17188C17.4805-1.17188 16.7969-1.85547 16.7969-3.22266ZM28.2715-53.0273L35.4004-53.0273C36.4258-53.0273 37.0605-53.7109 37.0605-54.7363L37.0605-61.6211C37.0605-62.5977 36.4258-63.2812 35.4004-63.2812L28.2715-63.2812C27.2949-63.2812 26.6602-62.5977 26.6602-61.6211L26.6602-54.7363C26.6602-53.7109 27.2949-53.0273 28.2715-53.0273ZM46.582-53.0273L53.7109-53.0273C54.6875-53.0273 55.3711-53.7109 55.3711-54.7363L55.3711-61.6211C55.3711-62.5977 54.6875-63.2812 53.7109-63.2812L46.582-63.2812C45.5566-63.2812 44.9219-62.5977 44.9219-61.6211L44.9219-54.7363C44.9219-53.7109 45.5566-53.0273 46.582-53.0273ZM28.2715-38.3301L35.4004-38.3301C36.4258-38.3301 37.0605-38.9648 37.0605-39.9902L37.0605-46.875C37.0605-47.9004 36.4258-48.5352 35.4004-48.5352L28.2715-48.5352C27.2949-48.5352 26.6602-47.9004 26.6602-46.875L26.6602-39.9902C26.6602-38.9648 27.2949-38.3301 28.2715-38.3301ZM46.582-38.3301L53.7109-38.3301C54.6875-38.3301 55.3711-38.9648 55.3711-39.9902L55.3711-46.875C55.3711-47.9004 54.6875-48.5352 53.7109-48.5352L46.582-48.5352C45.5566-48.5352 44.9219-47.9004 44.9219-46.875L44.9219-39.9902C44.9219-38.9648 45.5566-38.3301 46.582-38.3301ZM28.2715-23.584L35.4004-23.584C36.4258-23.584 37.0605-24.2676 37.0605-25.2441L37.0605-32.1289C37.0605-33.1543 36.4258-33.8379 35.4004-33.8379L28.2715-33.8379C27.2949-33.8379 26.6602-33.1543 26.6602-32.1289L26.6602-25.2441C26.6602-24.2676 27.2949-23.584 28.2715-23.584ZM46.582-23.584L53.7109-23.584C54.6875-23.584 55.3711-24.2676 55.3711-25.2441L55.3711-32.1289C55.3711-33.1543 54.6875-33.8379 53.7109-33.8379L46.582-33.8379C45.5566-33.8379 44.9219-33.1543 44.9219-32.1289L44.9219-25.2441C44.9219-24.2676 45.5566-23.584 46.582-23.584ZM33.252-10.9375C33.252-11.6699 33.6426-12.0117 34.3262-12.0117L47.7051-12.0117C48.3887-12.0117 48.7793-11.6699 48.7793-10.9375L48.7793-1.17188L33.252-1.17188Z"/>
  </g>
  <g id="Light-S" transform="matrix(1 0 0 1 1113.56 696)">
   <path d="M9.76562-1.26953C9.76562 2.83203 12.0605 5.32227 15.8691 5.32227L63.2812 5.32227C67.0898 5.32227 69.3848 2.83203 69.3848-1.26953L69.3848-69.1406C69.3848-73.1934 67.0898-75.7324 63.2812-75.7324L15.8691-75.7324C12.0605-75.7324 9.76562-73.1934 9.76562-69.1406ZM15.1855-2.44141L15.1855-67.9688C15.1855-69.5801 15.918-70.3125 17.5293-70.3125L61.6211-70.3125C63.2324-70.3125 63.9648-69.5801 63.9648-67.9688L63.9648-2.44141C63.9648-0.830078 63.2324-0.0976562 61.6211-0.0976562L52.832-0.0976562L52.832-11.2305C52.832-14.4043 51.416-15.918 48.3398-15.918L30.8105-15.918C27.7344-15.918 26.3184-14.4043 26.3184-11.2305L26.3184-0.0976562L17.5293-0.0976562C15.918-0.0976562 15.1855-0.830078 15.1855-2.44141ZM26.9043-53.125L34.6191-53.125C35.498-53.125 36.084-53.7598 36.084-54.6387L36.084-62.1094C36.084-63.0371 35.498-63.623 34.6191-63.623L26.9043-63.623C26.0254-63.623 25.4883-63.0371 25.4883-62.1094L25.4883-54.6387C25.4883-53.7598 26.0254-53.125 26.9043-53.125ZM44.5312-53.125L52.1973-53.125C53.0762-53.125 53.6621-53.7598 53.6621-54.6387L53.6621-62.1094C53.6621-63.0371 53.0762-63.623 52.1973-63.623L44.5312-63.623C43.6035-63.623 43.0664-63.0371 43.0664-62.1094L43.0664-54.6387C43.0664-53.7598 43.6035-53.125 44.5312-53.125ZM26.9043-37.6465L34.6191-37.6465C35.498-37.6465 36.084-38.2812 36.084-39.1602L36.084-46.6309C36.084-47.5586 35.498-48.1445 34.6191-48.1445L26.9043-48.1445C26.0254-48.1445 25.4883-47.5586 25.4883-46.6309L25.4883-39.1602C25.4883-38.2812 26.0254-37.6465 26.9043-37.6465ZM44.5312-37.6465L52.1973-37.6465C53.0762-37.6465 53.6621-38.2812 53.6621-39.1602L53.6621-46.6309C53.6621-47.5586 53.0762-48.1445 52.1973-48.1445L44.5312-48.1445C43.6035-48.1445 43.0664-47.5586 43.0664-46.6309L43.0664-39.1602C43.0664-38.2812 43.6035-37.6465 44.5312-37.6465ZM26.9043-22.168L34.6191-22.168C35.498-22.168 36.084-22.8027 36.084-23.6816L36.084-31.1523C36.084-32.0801 35.498-32.666 34.6191-32.666L26.9043-32.666C26.0254-32.666 25.4883-32.0801 25.4883-31.1523L25.4883-23.6816C25.4883-22.8027 26.0254-22.168 26.9043-22.168ZM44.5312-22.168L52.1973-22.168C53.0762-22.168 53.6621-22.8027 53.6621-23.6816L53.6621-31.1523C53.6621-32.0801 53.0762-32.666 52.1973-32.666L44.5312-32.666C43.6035-32.666 43.0664-32.0801 43.0664-31.1523L43.0664-23.6816C43.0664-22.8027 43.6035-22.168 44.5312-22.168ZM30.8105-10.0586C30.8105-10.9863 31.25-11.4258 32.1777-11.4258L46.9727-11.4258C47.9004-11.4258 48.3398-10.9863 48.3398-10.0586L48.3398-0.0976562L30.8105-0.0976562Z"/>
  </g>
  <g id="Thin-S" transform="matrix(1 0 0 1 818.751 696)">
   <path d="M9.76562-0.927734C9.76562 2.68555 11.6211 4.58984 15.1367 4.58984L60.2539 4.58984C63.7207 4.58984 65.5762 2.68555 65.5762-0.927734L65.5762-69.3848C65.5762-73.0469 63.7207-74.9512 60.2539-74.9512L15.1367-74.9512C11.6211-74.9512 9.76562-73.0469 9.76562-69.3848ZM13.0859-1.41602L13.0859-68.9453C13.0859-70.8984 13.8184-71.6309 15.7715-71.6309L59.5703-71.6309C61.5234-71.6309 62.3047-70.8984 62.3047-68.9453L62.3047-1.41602C62.3047 0.537109 61.5234 1.31836 59.5703 1.31836L50.7324 1.31836L50.7324-9.375C50.7324-12.2559 49.4629-13.5742 46.6309-13.5742L28.7598-13.5742C25.9277-13.5742 24.6582-12.2559 24.6582-9.375L24.6582 1.31836L15.7715 1.31836C13.8184 1.31836 13.0859 0.537109 13.0859-1.41602ZM25.0977-53.2715L33.5449-53.2715C34.2773-53.2715 34.7168-53.7598 34.7168-54.541L34.7168-62.793C34.7168-63.5254 34.2773-64.0137 33.5449-64.0137L25.0977-64.0137C24.3652-64.0137 23.9258-63.5254 23.9258-62.793L23.9258-54.541C23.9258-53.7598 24.3652-53.2715 25.0977-53.2715ZM41.7969-53.2715L50.2441-53.2715C50.9766-53.2715 51.416-53.7598 51.416-54.541L51.416-62.793C51.416-63.5254 50.9766-64.0137 50.2441-64.0137L41.7969-64.0137C41.0645-64.0137 40.625-63.5254 40.625-62.793L40.625-54.541C40.625-53.7598 41.0645-53.2715 41.7969-53.2715ZM25.0977-36.8164L33.5449-36.8164C34.2773-36.8164 34.7168-37.3047 34.7168-38.0371L34.7168-46.3379C34.7168-47.0703 34.2773-47.5586 33.5449-47.5586L25.0977-47.5586C24.3652-47.5586 23.9258-47.0703 23.9258-46.3379L23.9258-38.0371C23.9258-37.3047 24.3652-36.8164 25.0977-36.8164ZM41.7969-36.8164L50.2441-36.8164C50.9766-36.8164 51.416-37.3047 51.416-38.0371L51.416-46.3379C51.416-47.0703 50.9766-47.5586 50.2441-47.5586L41.7969-47.5586C41.0645-47.5586 40.625-47.0703 40.625-46.3379L40.625-38.0371C40.625-37.3047 41.0645-36.8164 41.7969-36.8164ZM25.0977-20.3613L33.5449-20.3613C34.2773-20.3613 34.7168-20.8496 34.7168-21.582L34.7168-29.8828C34.7168-30.6152 34.2773-31.1035 33.5449-31.1035L25.0977-31.1035C24.3652-31.1035 23.9258-30.6152 23.9258-29.8828L23.9258-21.582C23.9258-20.8496 24.3652-20.3613 25.0977-20.3613ZM41.7969-20.3613L50.2441-20.3613C50.9766-20.3613 51.416-20.8496 51.416-21.582L51.416-29.8828C51.416-30.6152 50.9766-31.1035 50.2441-31.1035L41.7969-31.1035C41.0645-31.1035 40.625-30.6152 40.625-29.8828L40.625-21.582C40.625-20.8496 41.0645-20.3613 41.7969-20.3613ZM27.5879-8.93555C27.5879-10.1074 28.125-10.6445 29.2969-10.6445L46.0938-10.6445C47.2656-10.6445 47.8027-10.1074 47.8027-8.93555L47.8027 1.31836L27.5879 1.31836Z"/>
  </g>
  <g id="Ultralight-S" transform="matrix(1 0 0 1 523.017 696)">
   <path d="M9.76562-0.78125C9.76562 2.58789 11.377 4.24805 14.7461 4.24805L58.6426 4.24805C62.0117 4.24805 63.623 2.58789 63.623-0.78125L63.623-69.5312C63.623-72.9004 62.0117-74.5605 58.6426-74.5605L14.7461-74.5605C11.377-74.5605 9.76562-72.9004 9.76562-69.5312ZM11.9629-0.878906L11.9629-69.4824C11.9629-71.582 12.7441-72.3633 14.8438-72.3633L58.5449-72.3633C60.6445-72.3633 61.4258-71.582 61.4258-69.4824L61.4258-0.878906C61.4258 1.26953 60.6445 2.05078 58.5449 2.05078L49.6582 2.05078L49.6582-8.39844C49.6582-11.1328 48.4375-12.4023 45.7031-12.4023L27.7344-12.4023C25-12.4023 23.7793-11.1328 23.7793-8.39844L23.7793 2.05078L14.8438 2.05078C12.7441 2.05078 11.9629 1.26953 11.9629-0.878906ZM24.1699-53.3691L33.0078-53.3691C33.6426-53.3691 34.0332-53.8086 34.0332-54.4434L34.0332-63.1348C34.0332-63.8184 33.6426-64.2578 33.0078-64.2578L24.1699-64.2578C23.5352-64.2578 23.1445-63.8184 23.1445-63.1348L23.1445-54.4434C23.1445-53.8086 23.5352-53.3691 24.1699-53.3691ZM40.4297-53.3691L49.2188-53.3691C49.8535-53.3691 50.2441-53.8086 50.2441-54.4434L50.2441-63.1348C50.2441-63.8184 49.8535-64.2578 49.2188-64.2578L40.4297-64.2578C39.7461-64.2578 39.3555-63.8184 39.3555-63.1348L39.3555-54.4434C39.3555-53.8086 39.7461-53.3691 40.4297-53.3691ZM24.1699-36.377L33.0078-36.377C33.6426-36.377 34.0332-36.8164 34.0332-37.5L34.0332-46.1914C34.0332-46.8262 33.6426-47.2656 33.0078-47.2656L24.1699-47.2656C23.5352-47.2656 23.1445-46.8262 23.1445-46.1914L23.1445-37.5C23.1445-36.8164 23.5352-36.377 24.1699-36.377ZM40.4297-36.377L49.2188-36.377C49.8535-36.377 50.2441-36.8164 50.2441-37.5L50.2441-46.1914C50.2441-46.8262 49.8535-47.2656 49.2188-47.2656L40.4297-47.2656C39.7461-47.2656 39.3555-46.8262 39.3555-46.1914L39.3555-37.5C39.3555-36.8164 39.7461-36.377 40.4297-36.377ZM24.1699-19.3848L33.0078-19.3848C33.6426-19.3848 34.0332-19.873 34.0332-20.5078L34.0332-29.1992C34.0332-29.8828 33.6426-30.3223 33.0078-30.3223L24.1699-30.3223C23.5352-30.3223 23.1445-29.8828 23.1445-29.1992L23.1445-20.5078C23.1445-19.873 23.5352-19.3848 24.1699-19.3848ZM40.4297-19.3848L49.2188-19.3848C49.8535-19.3848 50.2441-19.873 50.2441-20.5078L50.2441-29.1992C50.2441-29.8828 49.8535-30.3223 49.2188-30.3223L40.4297-30.3223C39.7461-30.3223 39.3555-29.8828 39.3555-29.1992L39.3555-20.5078C39.3555-19.873 39.7461-19.3848 40.4297-19.3848ZM25.9277-8.34961C25.9277-9.61914 26.5625-10.2539 27.832-10.2539L45.6055-10.2539C46.9238-10.2539 47.5098-9.61914 47.5098-8.34961L47.5098 2.05078L25.9277 2.05078Z"/>
  </g>
 </g>
</svg>
