<?xml version="1.0" encoding="UTF-8"?>
<!--Generator: Apple Native CoreSVG 149-->
<!DOCTYPE svg
PUBLIC "-//W3C//DTD SVG 1.1//EN"
       "http://www.w3.org/Graphics/SVG/1.1/DTD/svg11.dtd">
<svg version="1.1" xmlns="http://www.w3.org/2000/svg" xmlns:xlink="http://www.w3.org/1999/xlink" width="3300" height="2200">
 <!--glyph: "uni100588.medium", point size: 100.000000, font version: "Version 16.0d18e1", template writer version: "8"-->
 <g id="Notes">
  <rect height="2200" id="artboard" style="fill:white;opacity:1" width="3300" x="0" y="0"/>
  <line id="" style="fill:none;stroke:black;opacity:1;stroke-width:0.5;" x1="263" x2="3036" y1="292" y2="292"/>
  <text style="stroke:none;fill:black;font-family:-apple-system,&quot;SF Pro Display&quot;,&quot;SF Pro Text&quot;,Helvetica,sans-serif;font-weight:bold;" transform="matrix(1 0 0 1 263 322)">Weight/Scale Variations</text>
  <text style="stroke:none;fill:black;font-family:-apple-system,&quot;SF Pro Display&quot;,&quot;SF Pro Text&quot;,Helvetica,sans-serif;text-anchor:middle;" transform="matrix(1 0 0 1 559.711 322)">Ultralight</text>
  <text style="stroke:none;fill:black;font-family:-apple-system,&quot;SF Pro Display&quot;,&quot;SF Pro Text&quot;,Helvetica,sans-serif;text-anchor:middle;" transform="matrix(1 0 0 1 856.422 322)">Thin</text>
  <text style="stroke:none;fill:black;font-family:-apple-system,&quot;SF Pro Display&quot;,&quot;SF Pro Text&quot;,Helvetica,sans-serif;text-anchor:middle;" transform="matrix(1 0 0 1 1153.13 322)">Light</text>
  <text style="stroke:none;fill:black;font-family:-apple-system,&quot;SF Pro Display&quot;,&quot;SF Pro Text&quot;,Helvetica,sans-serif;text-anchor:middle;" transform="matrix(1 0 0 1 1449.84 322)">Regular</text>
  <text style="stroke:none;fill:black;font-family:-apple-system,&quot;SF Pro Display&quot;,&quot;SF Pro Text&quot;,Helvetica,sans-serif;text-anchor:middle;" transform="matrix(1 0 0 1 1746.56 322)">Medium</text>
  <text style="stroke:none;fill:black;font-family:-apple-system,&quot;SF Pro Display&quot;,&quot;SF Pro Text&quot;,Helvetica,sans-serif;text-anchor:middle;" transform="matrix(1 0 0 1 2043.27 322)">Semibold</text>
  <text style="stroke:none;fill:black;font-family:-apple-system,&quot;SF Pro Display&quot;,&quot;SF Pro Text&quot;,Helvetica,sans-serif;text-anchor:middle;" transform="matrix(1 0 0 1 2339.98 322)">Bold</text>
  <text style="stroke:none;fill:black;font-family:-apple-system,&quot;SF Pro Display&quot;,&quot;SF Pro Text&quot;,Helvetica,sans-serif;text-anchor:middle;" transform="matrix(1 0 0 1 2636.69 322)">Heavy</text>
  <text style="stroke:none;fill:black;font-family:-apple-system,&quot;SF Pro Display&quot;,&quot;SF Pro Text&quot;,Helvetica,sans-serif;text-anchor:middle;" transform="matrix(1 0 0 1 2933.4 322)">Black</text>
  <line id="" style="fill:none;stroke:black;opacity:1;stroke-width:0.5;" x1="263" x2="3036" y1="1903" y2="1903"/>
  <g id="" transform="matrix(1 0 0 1 263 1933)">
   <path d="M9.24805 0.830078C13.5547 0.830078 17.1387-2.74414 17.1387-7.05078C17.1387-11.3574 13.5449-14.9316 9.23828-14.9316C4.94141-14.9316 1.36719-11.3574 1.36719-7.05078C1.36719-2.74414 4.95117 0.830078 9.24805 0.830078ZM9.24805-0.654297C5.70312-0.654297 2.87109-3.49609 2.87109-7.05078C2.87109-10.6055 5.69336-13.4473 9.23828-13.4473C12.793-13.4473 15.6348-10.6055 15.6445-7.05078C15.6543-3.49609 12.8027-0.654297 9.24805-0.654297ZM6.39648-6.31836L8.50586-6.31836L8.50586-4.19922C8.50586-3.75977 8.79883-3.45703 9.22852-3.45703C9.67773-3.45703 9.9707-3.75977 9.9707-4.19922L9.9707-6.31836L12.0996-6.31836C12.5391-6.31836 12.8418-6.61133 12.8418-7.04102C12.8418-7.48047 12.5391-7.7832 12.0996-7.7832L9.9707-7.7832L9.9707-9.89258C9.9707-10.3418 9.67773-10.6445 9.22852-10.6445C8.79883-10.6445 8.50586-10.3418 8.50586-9.89258L8.50586-7.7832L6.39648-7.7832C5.94727-7.7832 5.64453-7.48047 5.64453-7.04102C5.64453-6.61133 5.94727-6.31836 6.39648-6.31836Z"/>
  </g>
  <g id="" transform="matrix(1 0 0 1 281.506 1933)">
   <path d="M11.709 2.91016C17.1582 2.91016 21.6699-1.61133 21.6699-7.05078C21.6699-12.5 17.1484-17.0117 11.6992-17.0117C6.25977-17.0117 1.74805-12.5 1.74805-7.05078C1.74805-1.61133 6.26953 2.91016 11.709 2.91016ZM11.709 1.25C7.09961 1.25 3.41797-2.44141 3.41797-7.05078C3.41797-11.6602 7.08984-15.3516 11.6992-15.3516C16.3086-15.3516 20-11.6602 20.0098-7.05078C20.0195-2.44141 16.3184 1.25 11.709 1.25ZM7.98828-6.23047L10.8789-6.23047L10.8789-3.32031C10.8789-2.83203 11.2109-2.5 11.6895-2.5C12.1777-2.5 12.5195-2.83203 12.5195-3.32031L12.5195-6.23047L15.4297-6.23047C15.918-6.23047 16.25-6.5625 16.25-7.04102C16.25-7.5293 15.918-7.87109 15.4297-7.87109L12.5195-7.87109L12.5195-10.7617C12.5195-11.2695 12.1777-11.6016 11.6895-11.6016C11.2109-11.6016 10.8789-11.2598 10.8789-10.7617L10.8789-7.87109L7.98828-7.87109C7.48047-7.87109 7.14844-7.5293 7.14844-7.04102C7.14844-6.5625 7.49023-6.23047 7.98828-6.23047Z"/>
  </g>
  <g id="" transform="matrix(1 0 0 1 304.924 1933)">
   <path d="M14.9707 5.66406C21.9336 5.66406 27.6953-0.0976562 27.6953-7.05078C27.6953-14.0137 21.9238-19.7754 14.9609-19.7754C8.00781-19.7754 2.25586-14.0137 2.25586-7.05078C2.25586-0.0976562 8.01758 5.66406 14.9707 5.66406ZM14.9707 3.84766C8.93555 3.84766 4.08203-1.01562 4.08203-7.05078C4.08203-13.0957 8.92578-17.9492 14.9609-17.9492C21.0059-17.9492 25.8594-13.0957 25.8691-7.05078C25.8789-1.01562 21.0156 3.84766 14.9707 3.84766ZM10.0586-6.14258L14.0625-6.14258L14.0625-2.12891C14.0625-1.5918 14.4336-1.2207 14.9512-1.2207C15.4883-1.2207 15.8594-1.5918 15.8594-2.12891L15.8594-6.14258L19.8828-6.14258C20.4102-6.14258 20.791-6.51367 20.791-7.03125C20.791-7.56836 20.4199-7.94922 19.8828-7.94922L15.8594-7.94922L15.8594-11.9531C15.8594-12.5098 15.4883-12.8809 14.9512-12.8809C14.4336-12.8809 14.0625-12.5 14.0625-11.9531L14.0625-7.94922L10.0586-7.94922C9.50195-7.94922 9.13086-7.56836 9.13086-7.03125C9.13086-6.51367 9.51172-6.14258 10.0586-6.14258Z"/>
  </g>
  <text style="stroke:none;fill:black;font-family:-apple-system,&quot;SF Pro Display&quot;,&quot;SF Pro Text&quot;,Helvetica,sans-serif;font-weight:bold;" transform="matrix(1 0 0 1 263 1953)">Design Variations</text>
  <text style="stroke:none;fill:black;font-family:-apple-system,&quot;SF Pro Display&quot;,&quot;SF Pro Text&quot;,Helvetica,sans-serif;" transform="matrix(1 0 0 1 263 1971)">Symbols are supported in up to nine weights and three scales.</text>
  <text style="stroke:none;fill:black;font-family:-apple-system,&quot;SF Pro Display&quot;,&quot;SF Pro Text&quot;,Helvetica,sans-serif;" transform="matrix(1 0 0 1 263 1989)">For optimal layout with text and other symbols, vertically align</text>
  <text style="stroke:none;fill:black;font-family:-apple-system,&quot;SF Pro Display&quot;,&quot;SF Pro Text&quot;,Helvetica,sans-serif;" transform="matrix(1 0 0 1 263 2007)">symbols with the adjacent text.</text>
  <line id="" style="fill:none;stroke:#00AEEF;stroke-width:0.5;opacity:1.0;" x1="776" x2="776" y1="1919" y2="1933"/>
  <g id="" transform="matrix(1 0 0 1 776 1933)">
   <path d="M3.31055 0.126953C3.82812 0.126953 4.08203-0.0683594 4.26758-0.605469L5.52734-4.0625L11.2891-4.0625L12.5488-0.605469C12.7344-0.0683594 12.9883 0.126953 13.4961 0.126953C14.0137 0.126953 14.3457-0.185547 14.3457-0.673828C14.3457-0.839844 14.3164-0.986328 14.2383-1.20117L9.6582-13.3887C9.43359-13.9941 9.0332-14.2871 8.4082-14.2871C7.80273-14.2871 7.39258-13.9941 7.17773-13.3984L2.59766-1.19141C2.51953-0.976562 2.49023-0.830078 2.49023-0.664062C2.49023-0.175781 2.80273 0.126953 3.31055 0.126953ZM6.00586-5.53711L8.37891-12.1094L8.42773-12.1094L10.8008-5.53711Z"/>
  </g>
  <line id="" style="fill:none;stroke:#00AEEF;stroke-width:0.5;opacity:1.0;" x1="792.836" x2="792.836" y1="1919" y2="1933"/>
  <text style="stroke:none;fill:black;font-family:-apple-system,&quot;SF Pro Display&quot;,&quot;SF Pro Text&quot;,Helvetica,sans-serif;font-weight:bold;" transform="matrix(1 0 0 1 776 1953)">Margins</text>
  <text style="stroke:none;fill:black;font-family:-apple-system,&quot;SF Pro Display&quot;,&quot;SF Pro Text&quot;,Helvetica,sans-serif;" transform="matrix(1 0 0 1 776 1971)">Leading and trailing margins on the left and right side of each symbol</text>
  <text style="stroke:none;fill:black;font-family:-apple-system,&quot;SF Pro Display&quot;,&quot;SF Pro Text&quot;,Helvetica,sans-serif;" transform="matrix(1 0 0 1 776 1989)">can be adjusted by modifying the x-location of the margin guidelines.</text>
  <text style="stroke:none;fill:black;font-family:-apple-system,&quot;SF Pro Display&quot;,&quot;SF Pro Text&quot;,Helvetica,sans-serif;" transform="matrix(1 0 0 1 776 2007)">Modifications are automatically applied proportionally to all</text>
  <text style="stroke:none;fill:black;font-family:-apple-system,&quot;SF Pro Display&quot;,&quot;SF Pro Text&quot;,Helvetica,sans-serif;" transform="matrix(1 0 0 1 776 2025)">scales and weights.</text>
  <g id="" transform="matrix(1 0 0 1 1289 1933)">
   <path d="M2.8418 1.86523L4.54102 3.57422C5.40039 4.44336 6.38672 4.38477 7.31445 3.35938L17.4902-7.85156C17.7539-7.76367 18.0273-7.7832 18.3398-7.8418L19.4043-8.03711L20.0684-7.36328L20.0293-6.80664C19.9902-6.30859 20.1172-5.92773 20.6055-5.44922L21.3672-4.70703C21.8457-4.22852 22.4609-4.19922 22.9297-4.66797L25.8398-7.58789C26.3086-8.05664 26.2891-8.65234 25.8105-9.13086L25.0391-9.89258C24.5605-10.3711 24.1895-10.5273 23.7109-10.4883L23.1348-10.4395L22.4902-11.0742L22.7344-12.1973C22.8613-12.7637 22.7051-13.2031 22.1191-13.7891L19.9219-15.9766C16.582-19.2969 12.1484-19.2188 9.25781-16.3281C8.83789-15.918 8.80859-15.3418 9.04297-14.9512C9.27734-14.5898 9.73633-14.3555 10.3809-14.5215C11.8457-14.8633 13.3691-14.9219 14.7949-13.9844L14.209-12.5293C14.0137-12.0508 13.9844-11.6504 14.1113-11.2891L3.04688-0.898438C2.06055 0.0195312 1.98242 0.996094 2.8418 1.86523ZM10.752-15.957C13.1836-17.7344 16.4746-17.4316 18.7012-15.2051L21.1328-12.793C21.3672-12.5586 21.4062-12.373 21.3379-12.0312L21.0156-10.5469L22.5195-9.0625L23.5059-9.12109C23.7598-9.13086 23.8379-9.11133 24.0332-8.91602L24.6094-8.33984L22.168-5.89844L21.5918-6.47461C21.3965-6.66992 21.3672-6.74805 21.377-7.01172L21.4453-7.98828L19.9512-9.47266L18.4277-9.21875C18.1055-9.15039 17.959-9.17969 17.7148-9.41406L15.7129-11.416C15.459-11.6504 15.4297-11.8164 15.5859-12.1875L16.4648-14.2773C14.9023-15.7324 12.8711-16.3574 10.8398-15.7617C10.6836-15.7227 10.625-15.8496 10.752-15.957ZM5.27344 2.30469L4.10156 1.14258C3.63281 0.683594 3.74023 0.341797 4.14062-0.0195312L14.9512-10.1953L16.416-8.71094L6.42578 2.27539C6.07422 2.67578 5.74219 2.77344 5.27344 2.30469Z"/>
  </g>
  <text style="stroke:none;fill:black;font-family:-apple-system,&quot;SF Pro Display&quot;,&quot;SF Pro Text&quot;,Helvetica,sans-serif;font-weight:bold;" transform="matrix(1 0 0 1 1289 1953)">Exporting</text>
  <text style="stroke:none;fill:black;font-family:-apple-system,&quot;SF Pro Display&quot;,&quot;SF Pro Text&quot;,Helvetica,sans-serif;" transform="matrix(1 0 0 1 1289 1971)">Symbols should be outlined when exporting to ensure the</text>
  <text style="stroke:none;fill:black;font-family:-apple-system,&quot;SF Pro Display&quot;,&quot;SF Pro Text&quot;,Helvetica,sans-serif;" transform="matrix(1 0 0 1 1289 1989)">design is preserved when submitting to Xcode.</text>
  <text id="template-version" style="stroke:none;fill:black;font-family:-apple-system,&quot;SF Pro Display&quot;,&quot;SF Pro Text&quot;,Helvetica,sans-serif;text-anchor:end;" transform="matrix(1 0 0 1 3036 1933)">Template v.2.0</text>
  <text style="stroke:none;fill:black;font-family:-apple-system,&quot;SF Pro Display&quot;,&quot;SF Pro Text&quot;,Helvetica,sans-serif;text-anchor:end;" transform="matrix(1 0 0 1 3036 1951)">Requires Xcode 12 or greater</text>
  <text style="stroke:none;fill:black;font-family:-apple-system,&quot;SF Pro Display&quot;,&quot;SF Pro Text&quot;,Helvetica,sans-serif;text-anchor:end;" transform="matrix(1 0 0 1 3036 1969)">Generated from hourglass.bottomhalf.fill</text>
  <text style="stroke:none;fill:black;font-family:-apple-system,&quot;SF Pro Display&quot;,&quot;SF Pro Text&quot;,Helvetica,sans-serif;text-anchor:end;" transform="matrix(1 0 0 1 3036 1987)">Typeset at 100 points</text>
  <text style="stroke:none;fill:black;font-family:-apple-system,&quot;SF Pro Display&quot;,&quot;SF Pro Text&quot;,Helvetica,sans-serif;" transform="matrix(1 0 0 1 263 726)">Small</text>
  <text style="stroke:none;fill:black;font-family:-apple-system,&quot;SF Pro Display&quot;,&quot;SF Pro Text&quot;,Helvetica,sans-serif;" transform="matrix(1 0 0 1 263 1156)">Medium</text>
  <text style="stroke:none;fill:black;font-family:-apple-system,&quot;SF Pro Display&quot;,&quot;SF Pro Text&quot;,Helvetica,sans-serif;" transform="matrix(1 0 0 1 263 1586)">Large</text>
 </g>
 <g id="Guides">
  <g id="H-reference" style="fill:#27AAE1;stroke:none;" transform="matrix(1 0 0 1 339 696)">
   <path d="M0.976562 0L3.66211 0L12.9883-24.4629L45.752-24.4629L55.127 0L57.7637 0L30.6152-70.459L28.125-70.459ZM29.3457-67.1387L29.4434-67.1387L44.873-26.709L13.8672-26.709Z"/>
  </g>
  <line id="Baseline-S" style="fill:none;stroke:#27AAE1;opacity:1;stroke-width:0.5;" x1="263" x2="3036" y1="696" y2="696"/>
  <line id="Capline-S" style="fill:none;stroke:#27AAE1;opacity:1;stroke-width:0.5;" x1="263" x2="3036" y1="625.541" y2="625.541"/>
  <g id="H-reference" style="fill:#27AAE1;stroke:none;" transform="matrix(1 0 0 1 339 1126)">
   <path d="M0.976562 0L3.66211 0L12.9883-24.4629L45.752-24.4629L55.127 0L57.7637 0L30.6152-70.459L28.125-70.459ZM29.3457-67.1387L29.4434-67.1387L44.873-26.709L13.8672-26.709Z"/>
  </g>
  <line id="Baseline-M" style="fill:none;stroke:#27AAE1;opacity:1;stroke-width:0.5;" x1="263" x2="3036" y1="1126" y2="1126"/>
  <line id="Capline-M" style="fill:none;stroke:#27AAE1;opacity:1;stroke-width:0.5;" x1="263" x2="3036" y1="1055.54" y2="1055.54"/>
  <g id="H-reference" style="fill:#27AAE1;stroke:none;" transform="matrix(1 0 0 1 339 1556)">
   <path d="M0.976562 0L3.66211 0L12.9883-24.4629L45.752-24.4629L55.127 0L57.7637 0L30.6152-70.459L28.125-70.459ZM29.3457-67.1387L29.4434-67.1387L44.873-26.709L13.8672-26.709Z"/>
  </g>
  <line id="Baseline-L" style="fill:none;stroke:#27AAE1;opacity:1;stroke-width:0.5;" x1="263" x2="3036" y1="1556" y2="1556"/>
  <line id="Capline-L" style="fill:none;stroke:#27AAE1;opacity:1;stroke-width:0.5;" x1="263" x2="3036" y1="1485.54" y2="1485.54"/>
  <line id="left-margin" style="fill:none;stroke:#00AEEF;stroke-width:0.5;opacity:1.0;" x1="1405.92" x2="1405.92" y1="1030.79" y2="1150.12"/>
  <line id="right-margin" style="fill:none;stroke:#00AEEF;stroke-width:0.5;opacity:1.0;" x1="1493.77" x2="1493.77" y1="1030.79" y2="1150.12"/>
 </g>
 <g id="Symbols">
  <g id="Black-L" transform="matrix(1 0 0 1 2873.63 1556)">
   <path d="M28.125 26.5137L91.2109 26.5137C99.1211 26.5137 103.467 22.168 103.467 14.9414L103.467 12.5C103.467-5.85938 83.0566-20.459 76.8066-26.9043C74.3652-29.4434 72.7539-31.4941 72.7539-35.2051C72.7539-38.916 74.3164-40.918 76.8066-43.5059C83.0566-49.9512 103.467-64.3555 103.467-82.9102L103.467-85.3516C103.467-92.5293 99.1211-96.875 91.2109-96.875L28.125-96.875C20.3125-96.875 16.0645-92.5293 16.0645-85.5469L16.0645-82.9102C16.0645-64.3555 36.5723-50 42.6758-43.5059C45.166-40.8691 46.7285-38.916 46.7285-35.2051C46.7285-31.4941 45.1172-29.4434 42.6758-26.9043C36.5234-20.459 16.0645-5.85938 16.0645 12.5L16.0645 15.1367C16.0645 22.168 20.3125 26.5137 28.125 26.5137ZM32.5684-76.709L86.9629-76.709C89.3555-76.709 89.8926-74.8047 88.4277-72.1191C83.2031-62.6465 64.8438-46.6309 59.7656-46.6309C54.6875-46.6309 36.8164-62.9883 31.1035-72.1191C29.541-74.707 30.2246-76.709 32.5684-76.709Z"/>
  </g>
  <g id="Heavy-L" transform="matrix(1 0 0 1 2577.88 1556)">
   <path d="M27.4414 25.4883L89.8926 25.4883C97.3633 25.4883 101.514 21.3867 101.514 14.3555L101.562 12.0117C101.562-5.95703 81.5918-20.6055 74.9023-27.2949C72.5098-29.7363 70.9961-31.7871 70.9961-35.2051C70.9961-38.6719 72.4609-40.625 74.9023-43.1641C81.543-49.8535 101.514-64.1113 101.514-82.4219L101.514-84.7656C101.514-91.748 97.3633-95.8496 89.8926-95.8496L27.4414-95.8496C20.0684-95.8496 16.0645-91.748 16.0645-85.0098L16.0645-82.4219C16.0645-64.1113 36.084-49.9023 42.6758-43.1641C45.1172-40.5762 46.582-38.6719 46.582-35.2051C46.582-31.7871 45.0684-29.7363 42.6758-27.2949C36.0352-20.6055 16.0645-5.95703 16.0645 12.0117L16.0645 14.5996C16.0645 21.3867 20.0684 25.4883 27.4414 25.4883ZM31.3477-76.123L86.2793-76.123C88.6719-76.123 89.1602-74.2676 87.6953-71.6309C82.373-61.9141 63.7695-45.7031 58.7891-45.7031C53.8574-45.7031 35.5957-62.1094 29.8828-71.6309C28.3691-74.1699 28.9551-76.123 31.3477-76.123Z"/>
  </g>
  <g id="Bold-L" transform="matrix(1 0 0 1 2282.26 1556)">
   <path d="M26.709 24.3652L88.3789 24.3652C95.4102 24.3652 99.3652 20.5566 99.3652 13.7207L99.3652 11.4746C99.4629-6.10352 79.9316-20.8008 72.7051-27.7344C70.3613-30.0781 68.9941-32.0312 68.9941-35.2051C68.9941-38.3789 70.3125-40.332 72.7051-42.7246C79.9316-49.7559 99.3652-63.916 99.3652-81.8848L99.3652-84.082C99.3652-90.8691 95.4102-94.7266 88.3789-94.7266L26.709-94.7266C19.8242-94.7266 16.0645-90.8691 16.0645-84.4238L16.0645-81.8848C16.0645-63.916 35.5469-49.8047 42.6758-42.7246C45.0684-40.2832 46.3867-38.3789 46.3867-35.2051C46.3867-32.0312 45.0195-30.0781 42.6758-27.7344C35.498-20.8008 16.0645-6.10352 16.0645 11.4746L16.0645 14.0625C16.0645 20.5566 19.8242 24.3652 26.709 24.3652ZM29.9316-75.5371L85.498-75.5371C87.8906-75.5371 88.2812-73.6328 86.9141-71.0449C81.4941-61.084 62.5488-44.6777 57.7148-44.6777C52.9297-44.6777 34.2285-61.1328 28.5156-71.0449C27.0996-73.584 27.5879-75.5371 29.9316-75.5371Z"/>
  </g>
  <g id="Semibold-L" transform="matrix(1 0 0 1 1986.28 1556)">
   <path d="M26.1719 23.584L87.3535 23.584C94.043 23.584 97.8516 19.9707 97.8516 13.2812L97.9004 11.084C97.9492-6.25 78.8086-20.8984 71.2402-28.0273C68.8965-30.2734 67.627-32.2266 67.627-35.2539C67.627-38.2324 68.8965-40.0879 71.2402-42.4316C78.7598-49.707 97.8516-63.7207 97.8516-81.4941L97.8516-83.6426C97.8516-90.2832 94.043-93.9453 87.3535-93.9453L26.1719-93.9453C19.6289-93.9453 16.0645-90.2832 16.0645-83.9844L16.0645-81.4941C16.0645-63.7207 35.1562-49.707 42.6758-42.4316C45.0684-40.0879 46.2891-38.2324 46.2891-35.2539C46.2891-32.2266 45.0195-30.2734 42.6758-28.0273C35.1562-20.8984 16.0645-6.25 16.0645 11.084L16.0645 13.6719C16.0645 19.9707 19.6289 23.584 26.1719 23.584ZM28.9551-75.0977L85.0098-75.0977C87.3535-75.0977 87.6953-73.2422 86.3281-70.7031C80.8594-60.498 61.6699-43.9453 56.9824-43.9453C52.2461-43.9453 33.3008-60.498 27.5879-70.7031C26.2207-73.1934 26.6113-75.0977 28.9551-75.0977Z"/>
  </g>
  <g id="Medium-L" transform="matrix(1 0 0 1 1690.16 1556)">
   <path d="M25.7812 22.998L86.5723 22.998C93.0176 22.998 96.6797 19.4824 96.7285 12.9395L96.7285 10.791C96.875-6.29883 77.9297-20.9961 70.1172-28.2715C67.8223-30.4688 66.6016-32.373 66.6016-35.2539C66.6016-38.0859 67.7734-39.9414 70.1172-42.1875C77.9297-49.6582 96.7285-63.623 96.7285-81.2012L96.7285-83.3008C96.7285-89.8438 93.0176-93.3105 86.5723-93.3105L25.7812-93.3105C19.4824-93.3105 16.0645-89.8438 16.0645-83.6914L16.0645-81.2012C16.0645-63.623 34.8633-49.6582 42.6758-42.1875C45.0195-39.9414 46.1914-38.0859 46.1914-35.2539C46.1914-32.373 44.9707-30.4688 42.6758-28.2715C34.8633-20.9961 16.0645-6.29883 16.0645 10.791L16.0645 13.3301C16.0645 19.4824 19.4824 22.998 25.7812 22.998ZM28.2227-74.7559L84.5703-74.7559C86.9141-74.7559 87.2559-72.9004 85.9375-70.4102C80.4199-60.1074 61.0352-43.4082 56.3965-43.4082C51.7578-43.4082 32.5684-59.9609 26.9043-70.4102C25.5371-72.9004 25.8789-74.7559 28.2227-74.7559Z"/>
  </g>
  <g id="Regular-L" transform="matrix(1 0 0 1 1394.18 1556)">
   <path d="M25.293 22.2168L85.5469 22.2168C91.6992 22.2168 95.2148 18.8965 95.2637 12.5L95.2637 10.4492C95.4102-6.39648 76.8066-21.1426 68.6523-28.5645C66.3574-30.6641 65.2832-32.5684 65.2832-35.2539C65.2832-37.8906 66.3574-39.6973 68.6523-41.8945C76.8066-49.6094 95.2637-63.4766 95.2637-80.8594L95.2637-82.8125C95.2637-89.2578 91.6992-92.5293 85.5469-92.5293L25.293-92.5293C19.3359-92.5293 16.0645-89.2578 16.0645-83.252L16.0645-80.8594C16.0645-63.4766 34.5215-49.5605 42.6758-41.8945C45.0195-39.6973 46.0449-37.8906 46.0449-35.2539C46.0449-32.5684 44.9707-30.6641 42.6758-28.5645C34.5215-21.1426 16.0645-6.39648 16.0645 10.4492L16.0645 12.9395C16.0645 18.8965 19.3359 22.2168 25.293 22.2168ZM27.2461-74.3652L84.082-74.3652C86.4258-74.3652 86.6699-72.5098 85.4004-70.0195C79.7852-59.5215 60.2051-42.7246 55.6641-42.7246C51.123-42.7246 31.6406-59.3262 25.9766-70.0195C24.6582-72.5098 24.9512-74.3652 27.2461-74.3652Z"/>
  </g>
  <g id="Light-L" transform="matrix(1 0 0 1 1098.84 1556)">
   <path d="M24.6094 21.4355L83.6426 21.4355C89.3066 21.4355 92.4316 18.3594 92.4805 12.5488L92.5293 9.81445C92.7246-6.25 74.1699-21.8262 65.918-28.9551C63.623-30.957 62.6465-32.8125 62.6465-35.2051C62.6465-37.6465 63.5742-39.3555 65.918-41.5039C74.1211-49.0234 92.4805-63.7695 92.4805-80.1758L92.4805-82.8613C92.4805-88.6719 89.3066-91.6992 83.6426-91.6992L24.6094-91.6992C19.0918-91.6992 16.0645-88.6719 16.0645-83.1055L16.0645-80.1758C16.0645-63.7695 34.4238-48.9746 42.6758-41.5039C45.0195-39.3555 45.9961-37.6465 45.9961-35.2051C45.9961-32.8125 44.9707-30.957 42.6758-28.9551C34.4238-21.8262 16.0645-6.25 16.0645 9.81445L16.0645 12.8418C16.0645 18.3594 19.0918 21.4355 24.6094 21.4355ZM26.0742-74.3652L82.5195-74.3652C84.7656-74.3652 84.8145-72.5098 83.6914-70.2637C78.1738-59.4238 58.0078-41.9922 54.2969-41.9922C50.5859-41.9922 30.5664-59.082 24.9023-70.2637C23.7793-72.5098 23.8281-74.3652 26.0742-74.3652Z"/>
  </g>
  <g id="Thin-L" transform="matrix(1 0 0 1 803.932 1556)">
   <path d="M23.6816 20.3613L81.1523 20.3613C86.1328 20.3613 88.7695 17.6758 88.8672 12.6465L88.916 9.0332C89.209-5.95703 70.6543-22.7051 62.3047-29.4434C59.9609-31.2988 59.1309-33.1055 59.1309-35.2051C59.1309-37.3047 59.9121-38.8672 62.3047-40.9668C70.5566-48.2422 88.8672-64.209 88.8672-79.248L88.8672-82.8613C88.8672-87.8906 86.1328-90.5762 81.1523-90.5762L23.6816-90.5762C18.75-90.5762 16.0645-87.8906 16.0645-82.9102L16.0645-79.248C16.0645-64.209 34.3262-48.1934 42.6758-40.9668C45.0684-38.8672 45.8496-37.3047 45.8496-35.2051C45.8496-33.1055 45.0195-31.2988 42.6758-29.4434C34.3262-22.7051 16.0645-5.95703 16.0645 9.0332L16.0645 12.6953C16.0645 17.6758 18.75 20.3613 23.6816 20.3613ZM24.5117-74.3652L80.4688-74.3652C82.5684-74.3652 82.4219-72.5586 81.4941-70.5566C76.0742-59.2773 55.127-41.0156 52.4902-41.0156C49.8535-41.0156 29.1504-58.7402 23.4863-70.5566C22.5586-72.5586 22.4121-74.3652 24.5117-74.3652Z"/>
  </g>
  <g id="Ultralight-L" transform="matrix(1 0 0 1 508.149 1556)">
   <path d="M23.2422 19.7754L79.834 19.7754C84.5215 19.7754 86.9141 17.334 86.9629 12.6953L87.0605 8.59375C87.4023-5.85938 68.8477-23.1934 60.4492-29.6875C58.1055-31.4941 57.3242-33.252 57.3242-35.2051C57.3242-37.1094 58.0078-38.623 60.4492-40.6738C68.75-47.8516 86.9629-64.4043 86.9629-78.8086L86.9629-82.8613C86.9629-87.5 84.5215-89.9902 79.834-89.9902L23.2422-89.9902C18.5547-89.9902 16.0645-87.5 16.0645-82.8125L16.0645-78.8086C16.0645-64.4043 34.2773-47.8027 42.6758-40.6738C45.1172-38.623 45.8008-37.1094 45.8008-35.2051C45.8008-33.252 45.0195-31.4941 42.6758-29.6875C34.2773-23.1934 16.0645-5.85938 16.0645 8.59375L16.0645 12.6465C16.0645 17.334 18.5547 19.7754 23.2422 19.7754ZM23.7305-74.3652L79.3945-74.3652C81.4941-74.3652 81.1523-72.6074 80.3223-70.752C74.9512-59.1797 53.6133-40.4785 51.5625-40.4785C49.5117-40.4785 28.418-58.5938 22.8027-70.752C21.9727-72.6074 21.6797-74.3652 23.7305-74.3652Z"/>
  </g>
  <g id="Black-M" transform="matrix(1 0 0 1 2886.5 1126)">
   <path d="M22.3633 13.5742L71.4844 13.5742C77.9297 13.5742 81.3477 10.0098 81.3477 4.44336L81.3477 2.09961C81.3477-12.1582 64.8926-23.9258 60.6445-28.418C58.7402-30.5176 57.3242-32.1289 57.3242-35.2051C57.3242-38.2812 58.6426-39.8438 60.6445-41.9434C64.8926-46.4844 81.3477-58.252 81.3477-72.5098L81.3477-74.9023C81.3477-80.3711 77.9297-83.9355 71.4844-83.9355L22.3633-83.9355C15.8691-83.9355 12.4512-80.3711 12.4512-74.9023L12.4512-72.5098C12.4512-58.252 28.9551-46.5332 33.0566-41.9434C35.0586-39.7461 36.377-38.2812 36.377-35.2051C36.377-32.1289 35.0098-30.5176 33.0566-28.418C28.9062-23.9258 12.4512-12.1582 12.4512 2.09961L12.4512 4.44336C12.4512 10.0098 15.8691 13.5742 22.3633 13.5742ZM26.3184-68.1152L67.4805-68.1152C69.2871-68.1152 69.7266-66.6504 68.6035-64.5996C64.6973-57.4219 50.5371-44.9219 46.9238-44.9219C43.2617-44.9219 29.6387-57.7637 25.1953-64.5996C23.9258-66.5527 24.5117-68.1152 26.3184-68.1152Z"/>
  </g>
  <g id="Heavy-M" transform="matrix(1 0 0 1 2590.5 1126)">
   <path d="M21.7773 12.6465L70.5078 12.6465C76.6113 12.6465 79.9316 9.27734 79.9316 3.80859L79.9316 1.70898C79.9805-12.3535 64.0137-23.9258 59.2773-28.7598C57.373-30.7617 56.1035-32.3242 56.1035-35.2051C56.1035-38.0859 57.3242-39.5996 59.2773-41.6504C64.0137-46.5332 79.9316-57.9102 79.9316-72.1191L79.9316-74.2676C79.9316-79.6875 76.6113-83.0566 70.5078-83.0566L21.7773-83.0566C15.7227-83.0566 12.4512-79.6875 12.4512-74.3164L12.4512-72.1191C12.4512-57.9102 28.4668-46.582 33.0566-41.6504C35.0098-39.5508 36.2305-38.0859 36.2305-35.2051C36.2305-32.3242 34.9609-30.7617 33.0566-28.7598C28.418-23.9258 12.4512-12.3535 12.4512 1.70898L12.4512 3.90625C12.4512 9.27734 15.7227 12.6465 21.7773 12.6465ZM25.2441-67.4805L67.1387-67.4805C68.9453-67.4805 69.3848-66.0645 68.2617-64.0137C64.2578-56.6406 49.9512-44.0918 46.1914-44.0918C42.4805-44.0918 28.5645-56.8848 24.1211-64.0137C22.9492-65.9668 23.4375-67.4805 25.2441-67.4805Z"/>
  </g>
  <g id="Bold-M" transform="matrix(1 0 0 1 2294.57 1126)">
   <path d="M21.1426 11.6699L69.4336 11.6699C75.1465 11.6699 78.3691 8.49609 78.3691 3.07617L78.3691 1.31836C78.418-12.5977 62.9883-23.9258 57.7148-29.1504C55.8594-31.0059 54.7363-32.5684 54.7363-35.2051C54.7363-37.8418 55.8105-39.3555 57.7148-41.3086C62.9883-46.582 78.3691-57.5684 78.3691-71.7285L78.3691-73.4863C78.3691-78.9062 75.1465-82.0312 69.4336-82.0312L21.1426-82.0312C15.5273-82.0312 12.4512-78.9062 12.4512-73.7305L12.4512-71.7285C12.4512-57.5684 27.8809-46.582 33.0566-41.3086C34.9609-39.3555 36.084-37.8418 36.084-35.2051C36.084-32.5684 34.9121-31.0059 33.0566-29.1504C27.832-23.9258 12.4512-12.5977 12.4512 1.31836L12.4512 3.32031C12.4512 8.49609 15.5273 11.6699 21.1426 11.6699ZM24.0723-66.8457L66.748-66.8457C68.6035-66.8457 68.9453-65.3809 67.8711-63.3301C63.7207-55.7617 49.2188-43.2129 45.4102-43.2129C41.6016-43.2129 27.3926-55.9082 22.9492-63.3301C21.7773-65.332 22.2168-66.8457 24.0723-66.8457Z"/>
  </g>
  <g id="Semibold-M" transform="matrix(1 0 0 1 1998.39 1126)">
   <path d="M20.752 10.9863L68.7012 10.9863C74.1699 10.9863 77.2461 7.95898 77.2949 2.58789L77.2949 1.02539C77.3438-12.7441 62.2559-23.9258 56.6406-29.3945C54.834-31.2012 53.7598-32.7637 53.7598-35.2539C53.7598-37.6953 54.7852-39.209 56.6406-41.0645C62.2559-46.6309 77.2949-57.3242 77.2949-71.4355L77.2949-72.998C77.2949-78.3691 74.1699-81.3477 68.7012-81.3477L20.752-81.3477C15.3809-81.3477 12.4512-78.3691 12.4512-73.291L12.4512-71.4355C12.4512-57.3242 27.4902-46.6309 33.0566-41.0645C34.9121-39.209 35.9375-37.6953 35.9375-35.2539C35.9375-32.7637 34.9121-31.2012 33.0566-29.3945C27.4414-23.9258 12.4512-12.7441 12.4512 1.02539L12.4512 2.88086C12.4512 7.95898 15.3809 10.9863 20.752 10.9863ZM23.2422-66.3574L66.5039-66.3574C68.3594-66.3574 68.7012-64.8926 67.5781-62.8418C63.3789-55.1758 48.7793-42.5781 44.873-42.5781C40.9668-42.5781 26.5625-55.2246 22.1191-62.8418C20.9961-64.8438 21.3867-66.3574 23.2422-66.3574Z"/>
  </g>
  <g id="Medium-M" transform="matrix(1 0 0 1 1702.1 1126)">
   <path d="M20.4102 10.4492L68.1152 10.4492C73.3887 10.4492 76.4648 7.56836 76.4648 2.24609L76.4648 0.78125C76.5137-12.8418 61.7676-23.9258 55.8105-29.5898C54.0527-31.3477 53.0273-32.9102 53.0273-35.2539C53.0273-37.5977 54.0039-39.0625 55.8105-40.8691C61.7188-46.6309 76.4648-57.1777 76.4648-71.2402L76.4648-72.6074C76.4648-77.9297 73.3887-80.8105 68.1152-80.8105L20.4102-80.8105C15.2832-80.8105 12.4512-77.9297 12.4512-72.9492L12.4512-71.2402C12.4512-57.1777 27.1973-46.6309 33.0566-40.8691C34.9121-39.0625 35.8887-37.5977 35.8887-35.2539C35.8887-32.9102 34.8633-31.3477 33.0566-29.5898C27.1484-23.9258 12.4512-12.8418 12.4512 0.78125L12.4512 2.58789C12.4512 7.56836 15.2832 10.4492 20.4102 10.4492ZM22.6074-66.0156L66.3086-66.0156C68.1641-66.0156 68.457-64.5508 67.3828-62.5C63.0859-54.7363 48.3887-42.0898 44.4336-42.0898C40.5273-42.0898 25.9277-54.6875 21.5332-62.5C20.4102-64.502 20.752-66.0156 22.6074-66.0156Z"/>
  </g>
  <g id="Regular-M" transform="matrix(1 0 0 1 1405.92 1126)">
   <path d="M19.9707 9.76562L67.3828 9.76562C72.4121 9.76562 75.3418 7.03125 75.3906 1.75781L75.3906 0.488281C75.4395-12.9883 61.0352-23.9258 54.7852-29.8828C53.0273-31.543 52.0996-33.0566 52.0996-35.2539C52.0996-37.4512 52.9785-38.916 54.7852-40.625C61.0352-46.6797 75.3906-56.9336 75.3906-70.9473L75.3906-72.1191C75.3906-77.3926 72.4121-80.127 67.3828-80.127L19.9707-80.127C15.1367-80.127 12.4512-77.3926 12.4512-72.5586L12.4512-70.9473C12.4512-56.9336 26.8066-46.6797 33.0566-40.625C34.8633-38.916 35.7422-37.4512 35.7422-35.2539C35.7422-33.0566 34.8633-31.543 33.0566-29.8828C26.8066-23.9258 12.4512-12.9883 12.4512 0.488281L12.4512 2.19727C12.4512 7.03125 15.1367 9.76562 19.9707 9.76562ZM21.8262-65.5273L66.0156-65.5273C67.9199-65.5273 68.2129-64.0625 67.1387-62.0605C62.7441-54.1504 47.9004-41.4551 43.9453-41.4551C39.9414-41.4551 25.1465-54.0527 20.7031-62.0605C19.6289-64.0625 19.9219-65.5273 21.8262-65.5273Z"/>
  </g>
  <g id="Light-M" transform="matrix(1 0 0 1 1110.43 1126)">
   <path d="M19.3848 9.0332L65.6738 9.0332C70.2637 9.0332 72.9004 6.54297 72.9004 1.80664L72.9492-0.0488281C73.0469-12.8418 58.6426-24.5117 52.2949-30.1758C50.5371-31.7871 49.707-33.252 49.707-35.2539C49.707-37.207 50.4883-38.5742 52.2949-40.2832C58.6426-46.1914 72.9004-57.2266 72.9004-70.3613L72.9004-72.1191C72.9004-76.9043 70.2637-79.3945 65.6738-79.3945L19.3848-79.3945C14.8926-79.3945 12.4512-76.9043 12.4512-72.4121L12.4512-70.3613C12.4512-57.2266 26.709-46.1426 33.0566-40.2832C34.8633-38.5742 35.6934-37.207 35.6934-35.2539C35.6934-33.252 34.8633-31.7871 33.0566-30.1758C26.709-24.5117 12.4512-12.8418 12.4512-0.0488281L12.4512 2.09961C12.4512 6.54297 14.8926 9.0332 19.3848 9.0332ZM20.752-65.5273L64.6484-65.5273C66.4062-65.5273 66.5527-64.1113 65.625-62.2559C61.3281-54.0039 45.9473-40.7715 42.6758-40.7715C39.4531-40.7715 24.1699-53.8086 19.7754-62.2559C18.8477-64.1113 18.9453-65.5273 20.752-65.5273Z"/>
  </g>
  <g id="Thin-M" transform="matrix(1 0 0 1 815.358 1126)">
   <path d="M18.5547 8.05664L63.4277 8.05664C67.4316 8.05664 69.5801 5.9082 69.6289 1.85547L69.6777-0.78125C69.9219-12.5977 55.5176-25.3418 49.0723-30.6152C47.2656-32.1289 46.582-33.4961 46.582-35.2051C46.582-36.9141 47.2168-38.1348 49.0723-39.7949C55.4688-45.5078 69.6289-57.5684 69.6289-69.5312L69.6289-72.168C69.6289-76.2207 67.4316-78.3691 63.4277-78.3691L18.5547-78.3691C14.5996-78.3691 12.4512-76.2207 12.4512-72.2168L12.4512-69.5312C12.4512-57.5684 26.6602-45.459 33.0566-39.7949C34.9121-38.1348 35.5469-36.9141 35.5469-35.2051C35.5469-33.4961 34.8633-32.1289 33.0566-30.6152C26.6602-25.3418 12.4512-12.5977 12.4512-0.78125L12.4512 1.95312C12.4512 5.9082 14.5996 8.05664 18.5547 8.05664ZM19.3359-65.5273L62.793-65.5273C64.4531-65.5273 64.4043-64.1602 63.623-62.5488C59.4238-53.9062 43.3594-39.8926 41.0645-39.8926C38.8184-39.8926 22.9004-53.5156 18.5059-62.5488C17.7734-64.1602 17.6758-65.5273 19.3359-65.5273Z"/>
  </g>
  <g id="Ultralight-M" transform="matrix(1 0 0 1 519.477 1126)">
   <path d="M18.1641 7.56836L62.2559 7.56836C66.0156 7.56836 67.9199 5.61523 67.9688 1.9043L68.0176-1.12305C68.3105-12.5 53.9062-25.7812 47.4121-30.8594C45.6055-32.2754 44.9707-33.6426 44.9707-35.2051C44.9707-36.7676 45.5566-37.9395 47.4121-39.5508C53.8086-45.166 67.9688-57.7637 67.9688-69.1406L67.9688-72.168C67.9688-75.8789 66.0156-77.832 62.2559-77.832L18.1641-77.832C14.4531-77.832 12.4512-75.8789 12.4512-72.168L12.4512-69.1406C12.4512-57.7637 26.6113-45.0684 33.0566-39.5508C34.9609-37.9395 35.498-36.7676 35.498-35.2051C35.498-33.6426 34.9121-32.2754 33.0566-30.8594C26.6113-25.7812 12.4512-12.5 12.4512-1.12305L12.4512 1.85547C12.4512 5.61523 14.4531 7.56836 18.1641 7.56836ZM18.6035-65.5273L61.8652-65.5273C63.4766-65.5273 63.2812-64.1602 62.5977-62.6953C58.4473-53.8086 41.9922-39.4531 40.2344-39.4531C38.4766-39.4531 22.2656-53.3691 17.8711-62.6953C17.1875-64.1602 16.9922-65.5273 18.6035-65.5273Z"/>
  </g>
  <g id="Black-S" transform="matrix(1 0 0 1 2896.68 696)">
   <path d="M17.4805 2.92969L55.957 2.92969C60.9863 2.92969 63.6719 0.146484 63.6719-4.19922L63.6719-6.00586C63.6719-17.1875 50.8301-26.3672 47.4609-29.9316C45.9473-31.543 44.873-32.8125 44.873-35.2051C44.873-37.5977 45.8984-38.8184 47.4609-40.4785C50.8301-44.043 63.6719-53.2227 63.6719-64.4043L63.6719-66.2598C63.6719-70.5566 60.9863-73.3398 55.957-73.3398L17.4805-73.3398C12.4512-73.3398 9.76562-70.5566 9.76562-66.2598L9.76562-64.4043C9.76562-53.2227 22.6562-44.0918 25.9277-40.4785C27.4902-38.7695 28.5156-37.5977 28.5156-35.2051C28.5156-32.8125 27.4414-31.543 25.9277-29.9316C22.6074-26.3672 9.76562-17.1875 9.76562-6.00586L9.76562-4.19922C9.76562 0.146484 12.4512 2.92969 17.4805 2.92969ZM20.5566-60.9375L52.8809-60.9375C54.2969-60.9375 54.6387-59.8145 53.7598-58.2031C50.6836-52.5391 39.5996-42.7734 36.7188-42.7734C33.8379-42.7734 23.1445-52.832 19.6777-58.2031C18.7012-59.7168 19.1406-60.9375 20.5566-60.9375Z"/>
  </g>
  <g id="Heavy-S" transform="matrix(1 0 0 1 2600.36 696)">
   <path d="M17.1387 2.34375L55.4199 2.34375C60.2051 2.34375 62.8906-0.341797 62.8906-4.6875L62.8906-6.25C62.8906-17.334 50.3906-26.3184 46.6797-30.127C45.166-31.6895 44.1895-32.959 44.1895-35.2051C44.1895-37.4512 45.166-38.6719 46.6797-40.2832C50.3906-44.1406 62.8906-52.9785 62.8906-64.209L62.8906-65.7715C62.8906-70.0684 60.2051-72.7539 55.4199-72.7539L17.1387-72.7539C12.3535-72.7539 9.76562-70.0684 9.76562-65.8691L9.76562-64.209C9.76562-52.9785 22.2656-44.1895 25.9277-40.2832C27.4414-38.6719 28.418-37.4512 28.418-35.2051C28.418-32.959 27.3926-31.6895 25.9277-30.127C22.2168-26.3184 9.76562-17.334 9.76562-6.25L9.76562-4.58984C9.76562-0.341797 12.3535 2.34375 17.1387 2.34375ZM19.873-60.498L52.7832-60.498C54.1992-60.498 54.541-59.3262 53.6621-57.7148C50.4883-51.9531 39.3555-42.2363 36.3281-42.2363C33.3008-42.2363 22.4609-52.1973 18.9941-57.7148C18.0176-59.2773 18.4082-60.498 19.873-60.498Z"/>
  </g>
  <g id="Bold-S" transform="matrix(1 0 0 1 2304.11 696)">
   <path d="M16.748 1.66016L54.7852 1.66016C59.375 1.66016 61.9629-0.878906 61.9629-5.22461L61.9629-6.49414C61.9629-17.5293 49.9023-26.2207 45.8008-30.4199C44.3359-31.8848 43.4082-33.1055 43.4082-35.2051C43.4082-37.3535 44.3359-38.5254 45.8008-40.0391C49.9023-44.2383 61.9629-52.6367 61.9629-63.9648L61.9629-65.1855C61.9629-69.5312 59.375-72.0703 54.7852-72.0703L16.748-72.0703C12.207-72.0703 9.76562-69.5312 9.76562-65.3809L9.76562-63.9648C9.76562-52.6367 21.8262-44.2871 25.9277-40.0391C27.3926-38.5254 28.2715-37.3535 28.2715-35.2051C28.2715-33.1055 27.3926-31.8848 25.9277-30.4199C21.8262-26.2207 9.76562-17.5293 9.76562-6.49414L9.76562-5.0293C9.76562-0.878906 12.207 1.66016 16.748 1.66016ZM19.0918-59.9609L52.6367-59.9609C54.1016-59.9609 54.4434-58.8379 53.5645-57.1777C50.293-51.3184 39.0625-41.6016 35.8887-41.6016C32.666-41.6016 21.6309-51.4648 18.2129-57.1777C17.2363-58.7891 17.627-59.9609 19.0918-59.9609Z"/>
  </g>
  <g id="Semibold-S" transform="matrix(1 0 0 1 2007.72 696)">
   <path d="M16.4551 1.17188L54.3945 1.17188C58.7891 1.17188 61.3281-1.2207 61.3281-5.61523L61.3281-6.64062C61.377-17.6758 49.5605-26.1719 45.166-30.5664C43.75-31.9824 42.8711-33.252 42.8711-35.2539C42.8711-37.2559 43.75-38.4277 45.166-39.8926C49.5605-44.3359 61.3281-52.4414 61.3281-63.8184L61.3281-64.7949C61.3281-69.1895 58.7891-71.582 54.3945-71.582L16.4551-71.582C12.1094-71.582 9.76562-69.1895 9.76562-65.0879L9.76562-63.8184C9.76562-52.4414 21.5332-44.3359 25.9277-39.8926C27.3438-38.4277 28.2227-37.2559 28.2227-35.2539C28.2227-33.252 27.3438-31.9824 25.9277-30.5664C21.5332-26.1719 9.76562-17.6758 9.76562-6.64062L9.76562-5.32227C9.76562-1.2207 12.1094 1.17188 16.4551 1.17188ZM18.5547-59.6191L52.5879-59.6191C54.0527-59.6191 54.3457-58.4473 53.4668-56.7871C50.1465-50.8789 38.8672-41.1621 35.5469-41.1621C32.2754-41.1621 21.0938-50.9277 17.627-56.7871C16.6992-58.3984 17.0898-59.6191 18.5547-59.6191Z"/>
  </g>
  <g id="Medium-S" transform="matrix(1 0 0 1 1711.23 696)">
   <path d="M16.2598 0.830078L54.0527 0.830078C58.3496 0.830078 60.8887-1.51367 60.8887-5.9082L60.8887-6.78711C60.8887-17.7734 49.3164-26.123 44.7266-30.7129C43.3105-32.0801 42.4805-33.3008 42.4805-35.2539C42.4805-37.1582 43.3105-38.3789 44.7266-39.7949C49.3164-44.3848 60.8887-52.2949 60.8887-63.6719L60.8887-64.502C60.8887-68.8965 58.3496-71.2402 54.0527-71.2402L16.2598-71.2402C12.0605-71.2402 9.76562-68.8965 9.76562-64.8438L9.76562-63.6719C9.76562-52.2949 21.3379-44.3848 25.9277-39.7949C27.3438-38.3789 28.125-37.1582 28.125-35.2539C28.125-33.3008 27.3438-32.0801 25.9277-30.7129C21.3379-26.123 9.76562-17.7734 9.76562-6.78711L9.76562-5.56641C9.76562-1.51367 12.0605 0.830078 16.2598 0.830078ZM18.1152-59.3262L52.4902-59.3262C54.0039-59.3262 54.2969-58.1543 53.418-56.4941C50-50.5371 38.7207-40.8691 35.3027-40.8691C31.9336-40.8691 20.7031-50.5859 17.2363-56.4941C16.3086-58.1543 16.6504-59.3262 18.1152-59.3262Z"/>
  </g>
  <g id="Regular-S" transform="matrix(1 0 0 1 1414.83 696)">
   <path d="M15.9668 0.390625L53.6621 0.390625C57.7637 0.390625 60.2539-1.9043 60.2539-6.29883L60.2539-6.98242C60.2539-17.8711 48.9746-26.0742 44.0918-30.8594C42.7246-32.2266 41.9434-33.4473 41.9434-35.2539C41.9434-37.0605 42.7246-38.2812 44.0918-39.6484C48.9746-44.4336 60.2539-52.0996 60.2539-63.5254L60.2539-64.1113C60.2539-68.5059 57.7637-70.8008 53.6621-70.8008L15.9668-70.8008C11.9629-70.8008 9.76562-68.5059 9.76562-64.5508L9.76562-63.5254C9.76562-52.0996 21.0449-44.4336 25.9277-39.6484C27.2949-38.2812 28.0762-37.0605 28.0762-35.2539C28.0762-33.4473 27.2949-32.2266 25.9277-30.8594C21.0449-26.0742 9.76562-17.8711 9.76562-6.98242L9.76562-5.85938C9.76562-1.9043 11.9629 0.390625 15.9668 0.390625ZM17.627-58.9844L52.4414-58.9844C53.9062-58.9844 54.248-57.8125 53.3203-56.1523C49.8535-50.0977 38.5254-40.4297 35.0098-40.4297C31.4941-40.4297 20.166-50.0488 16.6992-56.1523C15.7715-57.8125 16.1133-58.9844 17.627-58.9844Z"/>
  </g>
  <g id="Light-S" transform="matrix(1 0 0 1 1119.2 696)">
   <path d="M15.4297-0.292969L52.1484-0.292969C55.8594-0.292969 58.0566-2.29492 58.0566-6.25L58.1055-7.4707C58.1543-17.7246 46.875-26.6113 41.9434-31.1523C40.5273-32.4219 39.8926-33.5938 39.8926-35.2539C39.8926-36.8652 40.5273-37.9883 41.9434-39.3066C46.875-43.9941 58.0566-52.3438 58.0566-62.9883L58.0566-64.1113C58.0566-68.0664 55.8594-70.1172 52.1484-70.1172L15.4297-70.1172C11.7676-70.1172 9.76562-68.0664 9.76562-64.4043L9.76562-62.9883C9.76562-52.3438 20.9961-43.9941 25.9277-39.3066C27.3438-37.9883 27.9785-36.8652 27.9785-35.2539C27.9785-33.5938 27.2949-32.4219 25.9277-31.1523C20.9961-26.6113 9.76562-17.7246 9.76562-7.4707L9.76562-5.95703C9.76562-2.29492 11.7676-0.292969 15.4297-0.292969ZM16.6504-58.9844L51.1719-58.9844C52.6367-58.9844 52.7832-57.8613 52.002-56.3477C48.584-50 36.7676-39.8438 33.9355-39.8438C31.1035-39.8438 19.3359-49.8535 15.8691-56.3477C15.0879-57.8613 15.2344-58.9844 16.6504-58.9844Z"/>
  </g>
  <g id="Thin-S" transform="matrix(1 0 0 1 823.927 696)">
   <path d="M14.6973-1.12305L50.1465-1.12305C53.3691-1.12305 55.1758-2.88086 55.1758-6.20117L55.2246-8.10547C55.3711-17.5781 44.0918-27.3438 39.0625-31.543C37.6465-32.7148 37.1094-33.8379 37.1094-35.2051C37.1094-36.6211 37.6465-37.5977 39.0625-38.916C44.043-43.4082 55.1758-52.6855 55.1758-62.2559L55.1758-64.1602C55.1758-67.4805 53.3691-69.2383 50.1465-69.2383L14.6973-69.2383C11.5234-69.2383 9.76562-67.4805 9.76562-64.2578L9.76562-62.2559C9.76562-52.6855 20.8984-43.3594 25.9277-38.916C27.3438-37.5977 27.8809-36.6211 27.8809-35.2051C27.8809-33.8379 27.3438-32.7148 25.9277-31.543C20.8984-27.3438 9.76562-17.5781 9.76562-8.10547L9.76562-6.05469C9.76562-2.88086 11.5234-1.12305 14.6973-1.12305ZM15.4297-58.9844L49.5605-58.9844C50.8789-58.9844 50.8789-57.8613 50.2441-56.5918C46.9238-49.9023 34.4727-39.0625 32.5195-39.0625C30.5176-39.0625 18.2129-49.6094 14.7461-56.5918C14.1113-57.8613 14.1113-58.9844 15.4297-58.9844Z"/>
  </g>
  <g id="Ultralight-S" transform="matrix(1 0 0 1 527.948 696)">
   <path d="M14.3555-1.5625L49.1211-1.5625C52.0996-1.5625 53.6621-3.17383 53.7109-6.15234L53.7598-8.39844C53.9551-17.4316 42.6758-27.6855 37.5977-31.7383C36.1816-32.8613 35.6934-33.9355 35.6934-35.2051C35.6934-36.4746 36.1328-37.4023 37.5977-38.6719C42.627-43.0664 53.7109-52.832 53.7109-61.9141L53.7109-64.1602C53.7109-67.1387 52.0996-68.75 49.1211-68.75L14.3555-68.75C11.377-68.75 9.76562-67.1387 9.76562-64.1602L9.76562-61.9141C9.76562-52.832 20.8496-43.0176 25.9277-38.6719C27.3926-37.4023 27.832-36.4746 27.832-35.2051C27.832-33.9355 27.3438-32.8613 25.9277-31.7383C20.8496-27.6855 9.76562-17.4316 9.76562-8.39844L9.76562-6.15234C9.76562-3.17383 11.377-1.5625 14.3555-1.5625ZM14.7949-58.9844L48.7305-58.9844C50-58.9844 49.9023-57.9102 49.3164-56.6895C46.0449-49.8047 33.3008-38.6719 31.7383-38.6719C30.2246-38.6719 17.627-49.5117 14.209-56.6895C13.623-57.9102 13.5254-58.9844 14.7949-58.9844Z"/>
  </g>
 </g>
</svg>
